<svg width="106" height="105" viewBox="0 0 106 105" fill="none" xmlns="http://www.w3.org/2000/svg">
<path d="M0 0H89.2632L106 16.5789V105H16.7368L0 88.4211V0Z" fill="#F4F6F8"/>
<g clip-path="url(#clip0_49_2128)">
<path d="M48.5938 36.2886C48.5938 33.7039 50.6966 31.6011 53.2813 31.6011H54.9036L54.4142 30.2408C54.139 29.4758 53.4181 29 52.6497 29C52.4368 29 52.2202 29.0366 52.0086 29.1136L35.6161 35.08C34.6416 35.4347 34.14 36.5131 34.4968 37.4869L35.363 39.8511H48.5938V36.2886Z" fill="#DC6823"/>
<path d="M53.2812 34.4136C52.2457 34.4136 51.4062 35.253 51.4062 36.2886V39.8511H67.8125V36.2886C67.8125 35.253 66.9731 34.4136 65.9375 34.4136H53.2812ZM72.7812 66.8979H66.2188C62.3417 66.8979 59.1875 63.7437 59.1875 59.8667C59.1875 55.9897 62.3417 52.8354 66.2188 52.8354H72.7812V46.4136C72.7812 44.3425 71.1023 42.6636 69.0312 42.6636H32.75C30.679 42.6636 29 44.3425 29 46.4136V73.25C29 75.321 30.679 77 32.75 77H69.0312C71.1023 77 72.7812 75.321 72.7812 73.25V66.8979Z" fill="#1A1F22"/>
<path d="M75.5938 55.6479H66.2188C63.8925 55.6479 62 57.5405 62 59.8667C62 62.1929 63.8925 64.0854 66.2188 64.0854H75.5938C76.3692 64.0854 77 63.4546 77 62.6792V57.0542C77 56.2788 76.3692 55.6479 75.5938 55.6479ZM66.2188 61.2729C65.4421 61.2729 64.8125 60.6433 64.8125 59.8667C64.8125 59.0901 65.4421 58.4604 66.2188 58.4604C66.9954 58.4604 67.625 59.0901 67.625 59.8667C67.625 60.6433 66.9954 61.2729 66.2188 61.2729Z" fill="#1A1F22"/>
</g>
<defs>
<clipPath id="clip0_49_2128">
<rect width="48" height="48" fill="white" transform="translate(29 29)"/>
</clipPath>
</defs>
</svg>
