<svg width="107" height="105" viewBox="0 0 107 105" fill="none" xmlns="http://www.w3.org/2000/svg">
<path d="M0.5 0H89.7632L106.5 16.5789V105H17.2368L0.5 88.4211V0Z" fill="#F4F6F8"/>
<g clip-path="url(#clip0_49_2134)">
<path d="M64.2795 67.4151C62.0372 69.0945 59.3901 70.263 56.5108 70.748L58.21 62.3638C58.9609 58.6616 62.215 56 65.9931 56H71.2498C70.6313 59.6856 68.8937 62.9914 66.3968 65.555L70.6395 69.7977C74.8819 65.4685 77.5 59.5403 77.5 53C77.5 46.4598 74.8819 40.5316 70.6395 36.2024L66.3956 40.4463C68.541 42.6491 70.1279 45.3983 70.9239 48.4671C65.3741 46.0813 59.4352 44.8925 53.5 44.8944C47.5583 44.8963 41.6193 46.0896 36.076 48.467C36.8721 45.3982 38.4589 42.649 40.6043 40.4462L36.3605 36.2024C32.1181 40.5316 29.5 46.4598 29.5 53C29.5 59.5403 32.1181 65.4685 36.3605 69.7977L40.6032 65.555C38.1064 62.9914 36.3687 59.6856 35.7503 56H41.0069C44.785 56 48.0391 58.6616 48.79 62.3638L50.4892 70.748C47.6099 70.263 44.9629 69.0945 42.7205 67.4151L38.4456 71.69C42.5631 75.0103 47.799 77 53.5 77C59.2011 77 64.4369 75.0103 68.5544 71.69L64.2795 67.4151ZM49.0938 53C49.0938 50.5704 51.0704 48.5938 53.5 48.5938C55.9296 48.5938 57.9062 50.5704 57.9062 53C57.9062 55.4297 55.9296 57.4063 53.5 57.4063C51.0704 57.4063 49.0938 55.4297 49.0938 53Z" fill="#1A1F22"/>
<path d="M42.7197 38.5843C45.7243 36.3333 49.4563 35 53.4997 35C57.5431 35 61.275 36.3333 64.2797 38.5843L68.5541 34.31C64.4366 30.9897 59.2008 29 53.4997 29C47.7986 29 42.5628 30.9897 38.4453 34.31L42.7197 38.5843Z" fill="#DC6823"/>
<path d="M53.5 54.5938C54.3802 54.5938 55.0938 53.8802 55.0938 53C55.0938 52.1198 54.3802 51.4062 53.5 51.4062C52.6198 51.4062 51.9062 52.1198 51.9062 53C51.9062 53.8802 52.6198 54.5938 53.5 54.5938Z" fill="#1A1F22"/>
</g>
<defs>
<clipPath id="clip0_49_2134">
<rect width="48" height="48" fill="white" transform="translate(29.5 29)"/>
</clipPath>
</defs>
</svg>
