<svg width="107" height="105" viewBox="0 0 107 105" fill="none" xmlns="http://www.w3.org/2000/svg">
<path d="M0.5 0H89.7632L106.5 16.5789V105H17.2368L0.5 88.4211V0Z" fill="#F4F6F8"/>
<g clip-path="url(#clip0_49_2122)">
<path fill-rule="evenodd" clip-rule="evenodd" d="M53.5009 39.3506C50.8013 39.3506 48.1624 40.1511 45.9177 41.6509C43.6731 43.1507 41.9236 45.2825 40.8906 47.7765C39.8575 50.2706 39.5872 53.0151 40.1138 55.6628C40.6405 58.3105 41.9405 60.7426 43.8494 62.6515C45.7583 64.5604 48.1903 65.8603 50.8381 66.387C53.4858 66.9137 56.2302 66.6434 58.7243 65.6103C61.2184 64.5772 63.3501 62.8277 64.8499 60.5831C66.3497 58.3385 67.1503 55.6995 67.1503 52.9999C67.1463 49.3811 65.707 45.9117 63.1481 43.3528C60.5892 40.7939 57.1197 39.3546 53.5009 39.3506ZM53.5009 57.1951C53.1728 57.5049 52.7386 57.6774 52.2873 57.6774C51.836 57.6774 51.4018 57.5049 51.0737 57.1951L46.2942 52.4156L48.7364 50.0034L52.3023 53.5693L58.2954 47.5761L60.6777 50.0034L53.5009 57.1951Z" fill="#1A1F22"/>
<path fill-rule="evenodd" clip-rule="evenodd" d="M76.3498 49.2393C74.8515 47.0518 73.3532 44.7445 73.3532 44.7445C73.3532 44.7445 72.8288 42.0625 72.3044 39.5155C72.041 38.2032 71.3956 36.9982 70.4492 36.0518C69.5028 35.1054 68.2977 34.4599 66.9855 34.1966L61.7415 33.1178L57.2467 30.1212C56.1344 29.3898 54.8322 29 53.501 29C52.1697 29 50.8676 29.3898 49.7553 30.1212L45.2604 33.1178L40.0164 34.1966C38.7042 34.4599 37.4992 35.1054 36.5528 36.0518C35.6064 36.9982 34.9609 38.2032 34.6975 39.5155L33.6188 44.7744C33.6188 44.7744 32.1205 47.0818 30.6222 49.2693C29.8908 50.3816 29.501 51.6837 29.501 53.015C29.501 54.3462 29.8908 55.6484 30.6222 56.7607C32.1205 58.9482 33.6188 61.2555 33.6188 61.2555C33.6188 61.2555 34.1582 63.9524 34.6975 66.5145C34.9662 67.8212 35.614 69.0198 36.56 69.9605C37.506 70.9011 38.7082 71.5422 40.0164 71.8034L45.2754 72.8822L49.7703 75.8788C50.8826 76.6102 52.1847 77 53.516 77C54.8472 77 56.1494 76.6102 57.2617 75.8788L61.7565 72.8822L66.9855 71.8034C68.2977 71.5401 69.5028 70.8946 70.4492 69.9482C71.3956 69.0018 72.041 67.7968 72.3044 66.4845L73.3832 61.2256C73.3832 61.2256 74.8815 58.9182 76.3797 56.7307C77.1068 55.6155 77.4913 54.3118 77.486 52.9805C77.4807 51.6493 77.0857 50.3487 76.3498 49.2393ZM53.501 70.0654C50.1258 70.0654 46.8263 69.0646 44.0199 67.1894C41.2135 65.3142 39.0262 62.649 37.7346 59.5307C36.4429 56.4124 36.105 52.9811 36.7635 49.6707C37.4219 46.3603 39.0473 43.3196 41.4339 40.9329C43.8205 38.5463 46.8613 36.921 50.1717 36.2625C53.482 35.604 56.9133 35.942 60.0316 37.2336C63.1499 38.5252 65.8152 40.7126 67.6904 43.519C69.5655 46.3254 70.5664 49.6248 70.5664 53C70.5585 57.5236 68.758 61.8597 65.5593 65.0583C62.3606 68.257 58.0246 70.0575 53.501 70.0654Z" fill="#DC6823"/>
</g>
<defs>
<clipPath id="clip0_49_2122">
<rect width="48" height="48" fill="white" transform="translate(29.5 29)"/>
</clipPath>
</defs>
</svg>
