<svg width="106" height="105" viewBox="0 0 106 105" fill="none" xmlns="http://www.w3.org/2000/svg">
<path d="M0 0H89.2632L106 16.5789V105H16.7368L0 88.4211V0Z" fill="#F4F6F8"/>
<path d="M56.5395 64.82L59.5095 55.295C61.7555 54.1115 63.6365 52.3382 64.95 50.1657C66.2635 47.9932 66.96 45.5037 66.9645 42.965C66.9645 35.27 60.6945 29 52.9995 29C45.3045 29 39.0345 35.27 39.0345 42.965C39.039 45.5037 39.7355 47.9932 41.0491 50.1657C42.3626 52.3382 44.2435 54.1115 46.4895 55.295L49.4595 64.82C43.0245 65.285 36.3945 67.055 36.3945 70.85C36.3945 75.08 45.0045 77 52.9995 77C60.9945 77 69.6045 75.08 69.6045 70.85C69.6045 67.055 62.9745 65.285 56.5395 64.82ZM52.9995 34.49C57.6645 34.49 61.4745 38.285 61.4745 42.965C61.4745 47.645 57.6645 51.455 52.9995 51.455C48.3345 51.455 44.5245 47.645 44.5245 42.965C44.5245 38.285 48.3345 34.49 52.9995 34.49ZM52.9995 73.805C44.2995 73.805 39.8895 71.66 39.5895 70.895C39.8445 70.145 43.3095 68.345 50.4345 67.97L51.4695 71.3C51.6795 71.96 52.2945 72.41 52.9995 72.41C53.7045 72.41 54.3195 71.96 54.5295 71.3L55.5645 67.97C62.5545 68.33 66.0195 70.085 66.3795 70.85C65.9595 71.735 61.5495 73.805 52.9995 73.805Z" fill="#1A1F22"/>
<path d="M53.0007 48.2451C55.9107 48.2451 58.2807 45.8751 58.2807 42.9651C58.2807 40.0551 55.9107 37.6851 53.0007 37.6851C50.0907 37.6851 47.7207 40.0551 47.7207 42.9651C47.7207 45.8751 50.0907 48.2451 53.0007 48.2451Z" fill="#DC6823"/>
</svg>
