<svg width="106" height="105" viewBox="0 0 106 105" fill="none" xmlns="http://www.w3.org/2000/svg">
<path d="M0 0H89.2632L106 16.5789V105H16.7368L0 88.4211V0Z" fill="#F4F6F8"/>
<path d="M74.7505 44.8787V39.4086L74.8916 39.3647C76.471 38.8728 77.3559 37.1879 76.8643 35.6085C76.3726 34.029 74.6873 33.1444 73.1082 33.6357L65.2311 36.0881C65.2019 35.994 65.1544 35.9067 65.0914 35.831C65.0283 35.7554 64.9509 35.6931 64.8636 35.6475C64.7764 35.6016 64.681 35.5733 64.5828 35.5643C64.4847 35.5553 64.3858 35.5658 64.2917 35.595L35.6481 44.5126C35.1671 44.6617 34.7293 44.9017 34.3543 45.2148C33.9352 45.5654 34.1865 46.2498 34.7331 46.2498H38.0003C38.2506 46.2498 38.485 46.3754 38.6246 46.5835L41.0631 50.2417C41.1334 50.3469 41.2359 50.4265 41.3551 50.4687C41.4744 50.511 41.6041 50.5135 41.725 50.4761L44.3387 49.6623C44.458 49.625 44.5623 49.5506 44.6363 49.4499C44.7103 49.3493 44.7503 49.2276 44.7503 49.1026V45.9189C44.7503 44.0305 46.2811 42.4998 48.1694 42.4998H56.0004C56.1299 42.4997 56.2571 42.5332 56.3698 42.597C56.4825 42.6607 56.5768 42.7525 56.6435 42.8635L57.8525 44.8787C57.9355 45.017 58.0625 45.1235 58.2133 45.181C58.364 45.2384 58.5297 45.2436 58.6837 45.1957L66.5211 42.7557C66.9167 42.6329 67.1379 42.2129 67.0142 41.8173L73.2505 39.8757V45.4998C73.2505 45.6987 73.3295 45.8895 73.4701 46.0301C73.6108 46.1708 73.8016 46.2498 74.0005 46.2498C74.414 46.2498 74.7505 46.5863 74.7505 46.9998C74.7505 47.4133 74.414 47.7498 74.0005 47.7498C73.5869 47.7498 73.2505 47.4133 73.2505 46.9998C73.2505 46.8009 73.1715 46.6101 73.0308 46.4695C72.8901 46.3288 72.6994 46.2498 72.5005 46.2498C72.3016 46.2498 72.1108 46.3288 71.9701 46.4695C71.8295 46.6101 71.7505 46.8009 71.7505 46.9998C71.7505 48.2404 72.7598 49.2498 74.0005 49.2498C75.2412 49.2498 76.2505 48.2404 76.2505 46.9998C76.2505 46.0221 75.6234 45.1883 74.7505 44.8787ZM66.5684 40.3849L65.6768 37.5203L73.554 35.0681C74.3437 34.8223 75.1863 35.2648 75.4321 36.0544C75.678 36.8441 75.2355 37.6866 74.4458 37.9324L73.7829 38.1388L73.7722 38.1422L66.5684 40.3849Z" fill="#DC6823"/>
<path fill-rule="evenodd" clip-rule="evenodd" d="M64.0308 56.9692C63.8904 56.8288 63.6999 56.7498 63.5012 56.7498H32C31.8011 56.7498 31.6103 56.8289 31.4697 56.9695C31.329 57.1102 31.25 57.3009 31.25 57.4998V66.4999C31.25 66.6988 31.329 66.8896 31.4697 67.0302C31.6103 67.1709 31.8011 67.2499 32 67.2499H32.0179C32.4263 67.2499 32.7505 66.9159 32.75 66.5075V66.4999C32.75 62.7724 35.7725 59.7499 39.5001 59.7499C43.2276 59.7499 46.2501 62.7724 46.2501 66.4999V66.5075C46.2496 66.9159 46.5738 67.2499 46.9822 67.2499H52.268C52.6764 67.2499 53.0006 66.9159 53.0001 66.5075V66.4999C53.0001 62.7724 56.0227 59.7499 59.7502 59.7499C63.4777 59.7499 66.5002 62.7724 66.5002 66.4999V66.5075C66.4998 66.9159 66.8239 67.2499 67.2323 67.2499H68.0002C68.1991 67.2499 68.3899 67.1709 68.5306 67.0302C68.6712 66.8896 68.7502 66.6988 68.7502 66.4999V61.9988C68.7502 61.8002 68.6713 61.6097 68.5309 61.4692L64.0308 56.9692ZM59.7502 55.9998C59.9491 55.9998 60.1399 55.9208 60.2805 55.7802C60.4212 55.6395 60.5002 55.4487 60.5002 55.2498V51.4998C60.5002 51.3639 60.4632 51.2305 60.3933 51.1139L55.8933 43.6139C55.8266 43.5028 55.7324 43.4109 55.6197 43.3471C55.507 43.2833 55.3797 43.2498 55.2502 43.2498H48.9194C47.034 43.2498 45.5001 44.7836 45.5001 46.669V51.4998H40.6514L37.8741 47.3337C37.8056 47.231 37.7128 47.1467 37.6039 47.0884C37.4951 47.0302 37.3735 46.9997 37.25 46.9997H32.2459C30.4561 46.9998 29 48.456 29 50.2457V55.2498C29 55.4487 29.079 55.6395 29.2197 55.7802C29.3603 55.9208 29.5511 55.9998 29.75 55.9998H59.7502ZM39.5 72.4998C42.8137 72.4998 45.5 69.8135 45.5 66.4998C45.5 63.1861 42.8137 60.4998 39.5 60.4998C36.1863 60.4998 33.5 63.1861 33.5 66.4998C33.5 69.8135 36.1863 72.4998 39.5 72.4998ZM65.7501 66.4998C65.7501 69.8135 63.0638 72.4998 59.7501 72.4998C56.4364 72.4998 53.7501 69.8135 53.7501 66.4998C53.7501 63.1861 56.4364 60.4998 59.7501 60.4998C63.0638 60.4998 65.7501 63.1861 65.7501 66.4998ZM47.7501 61.2498H51.5001C51.699 61.2498 51.8898 61.1708 52.0304 61.0302C52.1711 60.8895 52.2501 60.6988 52.2501 60.4998C52.2501 60.3009 52.1711 60.1102 52.0304 59.9695C51.8898 59.8289 51.699 59.7498 51.5001 59.7498H47.7501C47.5512 59.7498 47.3604 59.8289 47.2197 59.9695C47.0791 60.1102 47.0001 60.3009 47.0001 60.4998C47.0001 60.6988 47.0791 60.8895 47.2197 61.0302C47.3604 61.1708 47.5512 61.2498 47.7501 61.2498ZM51.5001 62.7499H47.7501C47.5512 62.7499 47.3604 62.8289 47.2197 62.9695C47.0791 63.1102 47.0001 63.3009 47.0001 63.4999C47.0001 63.6988 47.0791 63.8895 47.2197 64.0302C47.3604 64.1708 47.5512 64.2499 47.7501 64.2499H51.5001C51.699 64.2499 51.8898 64.1708 52.0304 64.0302C52.1711 63.8895 52.2501 63.6988 52.2501 63.4999C52.2501 63.3009 52.1711 63.1102 52.0304 62.9695C51.8898 62.8289 51.699 62.7499 51.5001 62.7499ZM58.371 50.5009L56.0906 46.7958C55.9879 46.6289 55.8441 46.4911 55.6731 46.3955C55.502 46.3 55.3094 46.2498 55.1134 46.2498H53.0001C51.3624 46.2498 50.0276 47.5685 50.0005 49.1991C49.9726 50.8767 51.3821 52.2498 53.0599 52.2498H57.3938C58.2915 52.2498 58.8415 51.2654 58.371 50.5009ZM39.5 69.4999C41.1569 69.4999 42.5 68.1567 42.5 66.4999C42.5 64.843 41.1569 63.4999 39.5 63.4999C37.8431 63.4999 36.5 64.843 36.5 66.4999C36.5 68.1567 37.8431 69.4999 39.5 69.4999ZM62.7501 66.4999C62.7501 68.1567 61.407 69.4999 59.7501 69.4999C58.0933 69.4999 56.7501 68.1567 56.7501 66.4999C56.7501 64.843 58.0933 63.4999 59.7501 63.4999C61.407 63.4999 62.7501 64.843 62.7501 66.4999Z" fill="black"/>
</svg>
