<svg width="106" height="105" viewBox="0 0 106 105" fill="none" xmlns="http://www.w3.org/2000/svg">
<path d="M0 0H89.2632L106 16.5789V105H16.7368L0 88.4211V0Z" fill="#F4F6F8"/>
<g clip-path="url(#clip0_49_2287)">
<path d="M61.4786 44.5088C61.4786 39.8338 57.6752 36.0303 53 36.0303C48.3249 36.0303 44.5215 39.8337 44.5215 44.5088C44.5215 49.184 48.3249 52.9874 53 52.9874C57.6752 52.9874 61.4786 49.1839 61.4786 44.5088ZM47.7616 44.7336L49.7503 42.7449L52.0983 45.093L56.2498 40.9415L58.2385 42.9302L52.0983 49.0704L47.7616 44.7336Z" fill="#DC6823"/>
<path d="M53 69.2891C53 69.2891 68.5333 57.2422 68.5333 44.5333C68.5333 35.9545 61.5788 29 53 29C44.4213 29 37.4668 35.9545 37.4668 44.5333C37.4668 57.2422 53 69.2891 53 69.2891ZM41.709 44.5089C41.709 38.283 46.7742 33.2178 53 33.2178C59.2259 33.2178 64.2911 38.2829 64.2911 44.5089C64.2911 50.7348 59.2259 55.7998 53 55.7998C46.7742 55.7998 41.709 50.7347 41.709 44.5089Z" fill="#1A1F22"/>
<path d="M59.8398 66.8621C57.0649 69.6854 53.0005 72.8482 53.0005 72.8482C53.0005 72.8482 48.936 69.6854 46.1611 66.8621H39.8842L38.1426 76.9999H67.8583L66.1167 66.8621H59.8398Z" fill="#1A1F22"/>
</g>
<defs>
<clipPath id="clip0_49_2287">
<rect width="48" height="48" fill="white" transform="translate(29 29)"/>
</clipPath>
</defs>
</svg>
