<svg width="64" height="64" viewBox="0 0 64 64" fill="none" xmlns="http://www.w3.org/2000/svg">
<path d="M0 0H53.8947L64 10.1053V64H10.1053L0 53.8947V0Z" fill="#DC6823"/>
<path d="M49.4995 40.61V45.86C49.5015 46.3474 49.4017 46.8298 49.2064 47.2764C49.0112 47.723 48.7248 48.1238 48.3657 48.4533C48.0065 48.7828 47.5825 49.0336 47.1208 49.1898C46.6591 49.3459 46.1699 49.4039 45.6845 49.36C40.2995 48.7749 35.1268 46.9348 30.582 43.9875C26.3537 41.3007 22.7689 37.7158 20.082 33.4875C17.1245 28.9222 15.2839 23.7243 14.7095 18.315C14.6658 17.8311 14.7233 17.3434 14.8784 16.8829C15.0335 16.4224 15.2828 15.9993 15.6104 15.6404C15.9379 15.2815 16.3367 14.9948 16.7812 14.7985C17.2256 14.6021 17.7061 14.5005 18.192 14.5H23.442C24.2913 14.4917 25.1147 14.7924 25.7586 15.3462C26.4025 15.9 26.8232 16.6691 26.942 17.51C27.1636 19.1902 27.5746 20.8398 28.167 22.4275C28.4025 23.0539 28.4534 23.7346 28.3139 24.3891C28.1743 25.0435 27.85 25.6442 27.3795 26.12L25.157 28.3425C27.6482 32.7238 31.2758 36.3513 35.657 38.8425L37.8795 36.62C38.3553 36.1495 38.956 35.8253 39.6105 35.6857C40.2649 35.5461 40.9456 35.5971 41.572 35.8325C43.1597 36.425 44.8094 36.836 46.4895 37.0575C47.3396 37.1775 48.116 37.6057 48.6709 38.2607C49.2259 38.9157 49.5208 39.7518 49.4995 40.61Z" stroke="white" stroke-width="3" stroke-linecap="round" stroke-linejoin="round"/>
<path d="M35.5879 14.5C39.1548 14.8758 42.4867 16.4579 45.0324 18.9845C47.5781 21.5111 49.1852 24.831 49.5879 28.395" stroke="white" stroke-width="3" stroke-linecap="round" stroke-linejoin="round"/>
<path d="M35.5879 21.5C37.309 21.8394 38.8884 22.6883 40.1211 23.9365C41.3537 25.1848 42.1827 26.7747 42.5004 28.5" stroke="white" stroke-width="2" stroke-linecap="round" stroke-linejoin="round"/>
</svg>
