<svg width="340" height="51" viewBox="0 0 340 51" fill="none" xmlns="http://www.w3.org/2000/svg">
<g clip-path="url(#clip0_56_3458)">
<path fill-rule="evenodd" clip-rule="evenodd" d="M339.582 43.4446H338.502V39.9243C337.871 41.1062 336.942 42.3199 336.178 43.4446H334.984V38.2976H336.134V41.7226C336.766 40.5852 337.688 39.3842 338.414 38.2849H339.639C339.639 40.0006 339.639 41.7162 339.639 43.4319L339.582 43.4446ZM330.342 43.4446H328.871L326.976 41.0681V43.4446H325.713V38.2976H326.976V40.5343L328.751 38.2976H330.286L328.157 40.7567L330.443 43.4446H330.342ZM320.332 43.4446H319.239V39.9243C318.608 41.1062 317.673 42.3199 316.915 43.4446H315.715C315.715 41.7289 315.715 40.0133 315.715 38.2976H316.871V41.7226C317.503 40.5852 318.418 39.3842 319.151 38.2849H320.376C320.376 39.9794 320.376 41.6951 320.376 43.4319L320.332 43.4446ZM310.322 43.4446H309.134V41.2397H307.063V43.4446H305.8C305.8 41.7289 305.8 40.0133 305.8 38.2976H307.063V40.2738H309.134V38.2976H310.397V43.4446H310.322ZM301.088 38.3611L299.446 40.9029L301.126 43.4446H299.661C299.332 42.86 299.029 42.2818 298.682 41.6972L298.606 41.5637C298.259 42.1992 297.892 42.8346 297.532 43.47H296.086L297.829 40.9283L296.181 38.3103H297.633C297.981 38.9457 298.334 39.613 298.669 40.2738L299.755 38.3103H301.132L301.088 38.3611ZM290.642 40.2674C290.638 40.108 290.612 39.9498 290.566 39.7972C290.53 39.6519 290.461 39.517 290.364 39.4033C290.278 39.3001 290.17 39.2176 290.048 39.1618C289.914 39.1086 289.77 39.0827 289.625 39.0855C289.478 39.0835 289.332 39.1116 289.196 39.1682C289.062 39.231 288.94 39.3171 288.836 39.4223C288.726 39.5388 288.638 39.6745 288.577 39.8227C288.515 39.9649 288.47 40.1143 288.444 40.2674H290.642ZM291.791 41.1888H288.438C288.445 41.3734 288.482 41.5556 288.545 41.729C288.612 41.8964 288.715 42.0463 288.848 42.1674C288.981 42.2906 289.138 42.3837 289.309 42.4406C289.514 42.5031 289.727 42.5331 289.941 42.5296C290.196 42.5304 290.449 42.4918 290.692 42.4152C290.938 42.3313 291.17 42.2114 291.381 42.0594L291.469 41.9958C291.469 42.3517 291.469 42.7012 291.469 43.057C291.218 43.2113 290.942 43.3229 290.655 43.3874C290.317 43.4654 289.971 43.5017 289.625 43.4955C289.285 43.5013 288.946 43.4431 288.627 43.3239C288.333 43.2109 288.069 43.0303 287.857 42.7965C287.636 42.5535 287.47 42.2652 287.37 41.9513C287.262 41.5865 287.209 41.2074 287.212 40.8266C287.208 40.4568 287.268 40.0891 287.389 39.74C287.508 39.4196 287.688 39.1259 287.92 38.8758C288.142 38.6329 288.414 38.4401 288.716 38.3103C289.021 38.1803 289.35 38.1153 289.682 38.1197C289.999 38.1156 290.314 38.1717 290.61 38.2849C290.88 38.4008 291.119 38.5768 291.311 38.7996C291.507 39.0391 291.653 39.3157 291.741 39.6129C291.839 39.96 291.886 40.3197 291.88 40.6805V41.1761L291.791 41.1888ZM282.829 39.2825H281.459V43.4065H280.196V39.2825H278.756V38.2595H282.867V39.2825H282.829ZM274.398 45.281H273.394V43.4446H269.118V38.2976H270.381V42.4597H272.446V38.2976H273.709V42.4597H274.474V45.281H274.398ZM262.954 40.3183C262.95 40.1588 262.924 40.0007 262.878 39.8481C262.839 39.7038 262.77 39.5695 262.676 39.4541C262.591 39.3494 262.483 39.2666 262.36 39.2126C262.086 39.107 261.782 39.107 261.508 39.2126C261.374 39.2755 261.252 39.3616 261.148 39.4668C261.038 39.5833 260.95 39.719 260.889 39.8671C260.824 40.0083 260.779 40.1581 260.756 40.3119L262.954 40.3183ZM264.103 41.2397H260.75C260.757 41.4242 260.793 41.6065 260.857 41.7798C260.924 41.9453 261.025 42.0947 261.154 42.2182C261.289 42.3408 261.448 42.4338 261.621 42.4915C261.826 42.5544 262.039 42.5844 262.253 42.5804C262.508 42.5813 262.761 42.5427 263.004 42.4661C263.25 42.3821 263.482 42.2622 263.693 42.1102L263.781 42.0467V43.1078H263.75C263.501 43.2643 263.228 43.3761 262.941 43.4383C262.604 43.5159 262.258 43.5522 261.912 43.5463C261.569 43.5515 261.229 43.4934 260.908 43.3747C260.616 43.26 260.355 43.0796 260.143 42.8473C259.922 42.6043 259.756 42.316 259.657 42.0022C259.549 41.6373 259.496 41.2582 259.499 40.8775C259.497 40.5079 259.557 40.1406 259.676 39.7909C259.794 39.4704 259.975 39.1767 260.206 38.9267C260.428 38.6824 260.699 38.4894 261.002 38.3611C261.308 38.2311 261.637 38.1662 261.969 38.1705C262.286 38.1665 262.601 38.2225 262.897 38.3357C263.167 38.4504 263.407 38.6266 263.598 38.8504C263.794 39.0899 263.94 39.3665 264.027 39.6638C264.126 40.0109 264.172 40.3706 264.166 40.7313V41.227L264.103 41.2397ZM254.402 43.4446H253.202V39.2825H251.131V43.4446H249.868C249.868 41.7289 249.868 40.0133 249.868 38.2976H254.44C254.44 39.9921 254.44 41.7078 254.44 43.4446H254.402ZM244.859 43.2095C244.648 43.3266 244.423 43.4163 244.19 43.4764C243.933 43.5338 243.67 43.5615 243.407 43.559C243.058 43.5648 242.71 43.5044 242.384 43.3811C242.077 43.2651 241.798 43.0829 241.569 42.8473C241.34 42.6109 241.161 42.3298 241.045 42.0213C240.928 41.6909 240.87 41.3424 240.874 40.9918C240.866 40.6026 240.929 40.2152 241.057 39.8481C241.182 39.5124 241.376 39.2071 241.626 38.9521C241.871 38.6947 242.171 38.497 242.504 38.3739C242.864 38.2422 243.245 38.1776 243.628 38.1832C243.84 38.1835 244.051 38.2026 244.259 38.2404C244.457 38.2797 244.65 38.3415 244.834 38.4247H244.866V39.632L244.777 39.5685C244.618 39.4446 244.442 39.346 244.253 39.2762C244.073 39.2178 243.886 39.1878 243.697 39.1872C243.486 39.1798 243.275 39.2172 243.08 39.2971C242.884 39.3771 242.707 39.4977 242.56 39.6511C242.415 39.8098 242.301 39.9953 242.226 40.1976C242.087 40.6466 242.087 41.1274 242.226 41.5764C242.292 41.7679 242.397 41.9432 242.535 42.0911C242.672 42.2367 242.84 42.3477 243.028 42.4152C243.416 42.5637 243.845 42.5637 244.234 42.4152C244.431 42.3389 244.614 42.2317 244.777 42.0975L244.866 42.0276C244.866 42.4025 244.866 42.7838 244.866 43.165L244.859 43.2095ZM231.407 43.4446H230.327V39.9243C229.695 41.1062 228.767 42.3199 228.003 43.4446H226.803C226.803 41.7289 226.803 40.0133 226.803 38.2976H227.952V41.7226C228.584 40.5852 229.506 39.3842 230.232 38.2849H231.457V43.4319L231.407 43.4446ZM216.748 35.9338C216.729 36.1714 216.662 36.4027 216.552 36.6137C216.449 36.8172 216.303 36.9952 216.123 37.1348C215.935 37.2841 215.721 37.3962 215.491 37.4652C215.25 37.5384 214.998 37.5749 214.746 37.5732C214.492 37.5748 214.238 37.5384 213.994 37.4652C213.765 37.3951 213.551 37.283 213.363 37.1348C213.192 36.9925 213.054 36.8147 212.959 36.6137C212.854 36.4019 212.796 36.1701 212.788 35.9338V35.8766H213.843V35.9274C213.85 36.1638 213.942 36.3895 214.102 36.5629C214.279 36.7094 214.504 36.7841 214.733 36.7726C214.848 36.7795 214.963 36.7635 215.071 36.7253C215.18 36.6871 215.28 36.6275 215.365 36.5501C215.446 36.474 215.512 36.3836 215.561 36.2833C215.615 36.1712 215.651 36.0511 215.668 35.9274V35.8766H216.723L216.748 35.9338ZM217.02 43.4446H215.94V39.9243C215.308 41.1062 214.373 42.3199 213.615 43.4446H212.415C212.415 41.7289 212.415 40.0133 212.415 38.2976H213.565V41.7226C214.197 40.5852 215.112 39.3842 215.845 38.2849H217.07V43.4319L217.02 43.4446ZM204.811 39.1809C204.614 39.1749 204.418 39.2117 204.237 39.2889C204.066 39.3627 203.916 39.4785 203.801 39.6257C203.671 39.7816 203.577 39.9636 203.523 40.1594C203.454 40.3925 203.42 40.6344 203.422 40.8775C203.42 41.1101 203.454 41.3416 203.523 41.5637C203.581 41.7541 203.675 41.9311 203.801 42.0848C203.919 42.2252 204.068 42.3361 204.237 42.4089C204.416 42.4869 204.61 42.5259 204.805 42.5232C205 42.5261 205.193 42.4894 205.373 42.4152C205.536 42.3453 205.679 42.2362 205.79 42.0975C205.91 41.9392 206 41.7606 206.056 41.5701C206.115 41.3377 206.142 41.0983 206.138 40.8584C206.142 40.6144 206.115 40.3708 206.056 40.134C206 39.9444 205.913 39.766 205.797 39.6066C205.686 39.466 205.543 39.3547 205.38 39.2825C205.199 39.2105 205.006 39.176 204.811 39.1809ZM204.755 43.5336C204.393 43.541 204.033 43.4806 203.693 43.3557C203.38 43.2416 203.097 43.0568 202.866 42.8155C202.629 42.5793 202.448 42.2927 202.336 41.9768C202.212 41.6327 202.152 41.2687 202.159 40.9029C202.151 40.5116 202.213 40.1221 202.342 39.7527C202.46 39.4244 202.65 39.1269 202.898 38.8822C203.143 38.6389 203.438 38.4524 203.763 38.3357C204.122 38.211 204.501 38.1508 204.881 38.1578C205.24 38.1523 205.597 38.2103 205.936 38.3294C206.243 38.4431 206.52 38.6282 206.744 38.8695C206.971 39.1114 207.143 39.3996 207.249 39.7146C207.363 40.0741 207.418 40.4495 207.413 40.8266C207.416 41.2025 207.357 41.5763 207.237 41.9323C207.117 42.2549 206.932 42.5491 206.693 42.7965C206.451 43.0407 206.161 43.2312 205.841 43.3557C205.494 43.4886 205.126 43.5575 204.755 43.559V43.5336ZM197.068 43.4192H195.875V41.2143H193.809V43.4192H192.546C192.546 41.7035 192.546 39.9879 192.546 38.2722H193.809V40.2484H195.881V38.2722H197.144C197.144 39.9879 197.144 41.7035 197.144 43.4192H197.068ZM184.519 41.0872V42.5105H185.498C185.61 42.5231 185.724 42.5132 185.832 42.4816C185.94 42.45 186.041 42.3972 186.129 42.3263C186.198 42.2539 186.251 42.1679 186.285 42.0738C186.318 41.9797 186.332 41.8796 186.325 41.7798C186.333 41.6847 186.32 41.5891 186.286 41.5C186.252 41.4109 186.198 41.3306 186.129 41.2651C185.946 41.1325 185.723 41.0695 185.498 41.0872H184.519ZM183.256 43.3874V38.304H184.519V40.1658H185.782C186.03 40.1617 186.277 40.196 186.515 40.2674C186.722 40.3335 186.913 40.4416 187.077 40.5852C187.236 40.7263 187.362 40.9024 187.443 41.0999C187.527 41.3142 187.568 41.5431 187.563 41.7734C187.568 42.01 187.528 42.2452 187.443 42.4661C187.366 42.6713 187.24 42.8546 187.077 42.9998C186.921 43.1504 186.736 43.2672 186.534 43.3429C186.318 43.4158 186.092 43.4523 185.864 43.451H183.256V43.3874ZM177.85 43.4446H176.656V39.2825H175.74C175.682 39.9359 175.584 40.5851 175.45 41.227C175.359 41.6815 175.208 42.1218 175.001 42.536C174.853 42.8276 174.636 43.0784 174.37 43.2667C174.126 43.4279 173.84 43.512 173.549 43.5082C173.456 43.5147 173.363 43.5147 173.271 43.5082C173.188 43.4934 173.108 43.47 173.031 43.4383H172.993V42.4597L173.075 42.5042L173.233 42.5614C173.294 42.5676 173.355 42.5676 173.416 42.5614C173.738 42.5614 174.01 42.2182 174.224 41.5383C174.5 40.5001 174.663 39.4348 174.711 38.3611V38.3103H177.9C177.9 40.0048 177.9 41.7205 177.9 43.4573L177.85 43.4446ZM167.486 40.3183C167.486 40.1589 167.463 40.0003 167.416 39.8481C167.377 39.7038 167.308 39.5695 167.214 39.4541C167.128 39.3509 167.02 39.2684 166.898 39.2126C166.763 39.1601 166.62 39.1342 166.475 39.1364C166.328 39.1343 166.182 39.1624 166.046 39.219C165.911 39.2799 165.788 39.3661 165.686 39.4732C165.576 39.591 165.486 39.7263 165.42 39.8735C165.36 40.016 165.318 40.1654 165.294 40.3183H167.486ZM168.641 41.2397H165.288C165.295 41.4242 165.331 41.6065 165.395 41.7798C165.462 41.9453 165.563 42.0947 165.692 42.2182C165.827 42.3408 165.986 42.4338 166.159 42.4915C166.364 42.5544 166.577 42.5844 166.791 42.5804C167.046 42.5813 167.299 42.5427 167.542 42.4661C167.788 42.3821 168.02 42.2622 168.231 42.1102L168.313 42.0467C168.313 42.4025 168.313 42.752 168.313 43.1078C168.064 43.2633 167.791 43.3751 167.504 43.4383C167.167 43.5162 166.821 43.5525 166.475 43.5463C166.133 43.5515 165.792 43.4934 165.471 43.3747C165.178 43.2617 164.917 43.081 164.707 42.8473C164.486 42.6043 164.32 42.316 164.22 42.0022C164.109 41.6381 164.055 41.2584 164.062 40.8775C164.058 40.5077 164.118 40.14 164.239 39.7909C164.355 39.4692 164.536 39.175 164.77 38.9267C164.991 38.6824 165.263 38.4894 165.566 38.3611C165.869 38.2316 166.196 38.1667 166.526 38.1705C166.845 38.1657 167.162 38.2217 167.46 38.3357C167.73 38.4516 167.969 38.6276 168.161 38.8504C168.357 39.0899 168.503 39.3665 168.591 39.6638C168.689 40.0109 168.736 40.3706 168.73 40.7313V41.227L168.641 41.2397ZM159.686 39.3334H158.309V43.4573H157.046V39.3334H155.663V38.3103H159.774V39.3334H159.686ZM150.799 43.4573H149.719V39.937C149.088 41.1189 148.159 42.3326 147.402 43.4573H146.202C146.202 41.7417 146.202 40.026 146.202 38.3103H147.357V41.7226C147.989 40.5852 148.911 39.3842 149.637 38.2849H150.863C150.863 40.0006 150.863 41.7162 150.863 43.4319L150.799 43.4573ZM138.61 39.1809C138.413 39.1756 138.217 39.2125 138.035 39.2889C137.865 39.3643 137.716 39.4798 137.6 39.6257C137.47 39.7816 137.375 39.9636 137.322 40.1594C137.255 40.3928 137.223 40.6348 137.227 40.8775C137.223 41.1098 137.255 41.3412 137.322 41.5637C137.379 41.7555 137.476 41.9331 137.606 42.0848C137.722 42.2279 137.872 42.3394 138.042 42.4089C138.221 42.4881 138.415 42.5271 138.61 42.5232C138.805 42.5261 138.998 42.4894 139.178 42.4152C139.341 42.3453 139.484 42.2362 139.595 42.0975C139.715 41.9404 139.803 41.7612 139.854 41.5701C139.916 41.338 139.945 41.0986 139.943 40.8584C139.945 40.6141 139.916 40.3705 139.854 40.134C139.804 39.9424 139.716 39.763 139.595 39.6066C139.485 39.466 139.342 39.3547 139.178 39.2825C138.998 39.2105 138.804 39.176 138.61 39.1809ZM138.553 43.5336C138.192 43.5398 137.832 43.4795 137.492 43.3557C137.179 43.2416 136.896 43.0568 136.665 42.8155C136.432 42.5759 136.252 42.2903 136.134 41.9768C136.011 41.6327 135.951 41.2687 135.957 40.9029C135.953 40.5118 136.015 40.1228 136.141 39.7527C136.261 39.4256 136.451 39.1286 136.696 38.8822C136.942 38.6389 137.237 38.4524 137.562 38.3357C137.921 38.211 138.299 38.1508 138.68 38.1578C139.041 38.1516 139.4 38.2097 139.741 38.3294C140.047 38.4431 140.321 38.6282 140.543 38.8695C140.772 39.1097 140.944 39.3985 141.048 39.7146C141.275 40.4361 141.275 41.2108 141.048 41.9323C140.931 42.2554 140.746 42.5496 140.506 42.7951C140.267 43.0406 139.978 43.2317 139.658 43.3557C139.297 43.4932 138.914 43.5622 138.528 43.559L138.553 43.5336ZM127.494 40.636V41.2714C127.493 41.4387 127.523 41.6046 127.583 41.7607C127.634 41.913 127.718 42.052 127.829 42.1674C127.935 42.2844 128.064 42.3775 128.208 42.4406C128.355 42.5057 128.515 42.5382 128.675 42.536C128.861 42.5381 129.045 42.4967 129.212 42.4152C129.377 42.3332 129.518 42.2108 129.623 42.0594C129.743 41.8883 129.83 41.6967 129.882 41.4938C129.942 41.24 129.972 40.9797 129.97 40.7186C129.973 40.5039 129.946 40.2899 129.888 40.0832C129.842 39.9074 129.76 39.743 129.648 39.6002C129.548 39.4732 129.421 39.3711 129.275 39.3016C129.122 39.2359 128.956 39.2035 128.789 39.2063C128.608 39.2036 128.428 39.2359 128.259 39.3016C128.103 39.3749 127.965 39.4811 127.854 39.6129C127.737 39.752 127.645 39.9113 127.583 40.0832C127.514 40.2685 127.476 40.4638 127.469 40.6614L127.494 40.636ZM127.494 42.7774V45.7322H126.231C126.231 43.2455 126.231 40.7589 126.231 38.2722H127.494V39.0538C127.657 38.7985 127.872 38.5817 128.126 38.4183C128.436 38.2437 128.787 38.1559 129.143 38.1642C129.44 38.159 129.735 38.2175 130.008 38.3357C130.268 38.4528 130.495 38.6316 130.671 38.8568C130.857 39.0975 130.996 39.3712 131.082 39.6638C131.174 40.0011 131.219 40.3497 131.214 40.6996C131.216 41.0881 131.165 41.475 131.063 41.8497C130.965 42.176 130.808 42.4817 130.602 42.752C130.405 43 130.154 43.1999 129.869 43.3366C129.569 43.4695 129.244 43.5366 128.915 43.5336C128.609 43.5376 128.306 43.461 128.038 43.3112C127.813 43.1809 127.62 43.0005 127.475 42.7838L127.494 42.7774ZM121.425 39.2952H120.048V43.4192H118.785V39.2952H117.351V38.2722H121.463V39.2952H121.425ZM112.924 43.1841C112.713 43.3012 112.488 43.3909 112.255 43.451C112 43.5084 111.739 43.5361 111.478 43.5336C111.127 43.5394 110.777 43.479 110.448 43.3557C110.144 43.2379 109.868 43.0559 109.64 42.8219C109.407 42.5875 109.226 42.3059 109.109 41.9958C108.993 41.6655 108.935 41.317 108.939 40.9664C108.933 40.5768 108.997 40.1894 109.128 39.8227C109.25 39.487 109.442 39.1815 109.69 38.9267C109.937 38.6707 110.237 38.4731 110.568 38.3484C110.931 38.2167 111.314 38.1521 111.699 38.1578C111.911 38.1579 112.122 38.1771 112.33 38.215C112.53 38.2543 112.725 38.3161 112.911 38.3993H112.943V39.6066L112.855 39.5431C112.694 39.4191 112.515 39.3205 112.324 39.2507C112.147 39.1924 111.961 39.1624 111.775 39.1618C111.562 39.1538 111.351 39.191 111.154 39.271C110.957 39.3509 110.779 39.4718 110.631 39.6257C110.486 39.7844 110.372 39.9699 110.297 40.1721C110.224 40.3978 110.188 40.6338 110.189 40.8711C110.185 41.1019 110.219 41.3318 110.29 41.551C110.359 41.7428 110.467 41.9181 110.606 42.0657C110.741 42.2105 110.908 42.3214 111.093 42.3898C111.294 42.469 111.508 42.5079 111.724 42.5042C111.921 42.5033 112.115 42.4667 112.299 42.3962C112.495 42.3199 112.679 42.2126 112.842 42.0784L112.937 42.0085V43.146L112.924 43.1841ZM98.3979 40.9537L97.4064 41.0935C97.265 41.1101 97.1255 41.1399 96.9896 41.1825C96.8856 41.2123 96.7874 41.2595 96.699 41.3223C96.6225 41.3761 96.5632 41.4511 96.5285 41.5383C96.4882 41.6503 96.4689 41.7688 96.4717 41.8878C96.4707 41.9793 96.4878 42.07 96.5222 42.1547C96.5589 42.2372 96.6128 42.3108 96.6801 42.3707C96.7536 42.4328 96.8368 42.4821 96.9264 42.5169C97.1831 42.5888 97.4563 42.5732 97.7032 42.4724C97.8426 42.4132 97.9675 42.3243 98.0695 42.2119C98.1764 42.0991 98.2582 41.9649 98.3095 41.8179C98.3691 41.6618 98.3991 41.4958 98.3979 41.3286V40.9537ZM99.5411 43.4192H98.3916V42.7393C98.2364 42.9921 98.0171 43.1988 97.7563 43.3384C97.4955 43.478 97.2026 43.5453 96.9074 43.5336C96.6781 43.5384 96.4496 43.504 96.2317 43.4319C96.0365 43.3678 95.8575 43.2616 95.7075 43.1206C95.569 42.9805 95.4595 42.8142 95.3854 42.6313C95.278 42.3319 95.2506 42.0094 95.306 41.696C95.3615 41.3826 95.4977 41.0894 95.7011 40.8457C96.0507 40.5273 96.4944 40.333 96.9643 40.2929L98.4043 40.0895C98.4173 39.8283 98.3315 39.5717 98.1643 39.3715C98.0678 39.28 97.9533 39.2102 97.8281 39.1664C97.7029 39.1225 97.57 39.1058 97.438 39.1173C97.1552 39.1162 96.8746 39.1679 96.6106 39.2698C96.3388 39.3771 96.0869 39.5296 95.8654 39.721L95.7706 39.8036V38.6535H95.8022C96.0725 38.4929 96.3637 38.371 96.6674 38.2913C96.9901 38.2134 97.3209 38.1751 97.6527 38.1769C98.96 38.1769 99.6042 38.8123 99.6042 40.0832V43.4129L99.5411 43.4192ZM88.7475 42.4343V39.2571H87.9012C87.8611 39.832 87.7594 40.4008 87.5981 40.9537C87.4434 41.4715 87.2316 41.9703 86.9665 42.4406L88.7475 42.4343ZM90.6991 45.2556H89.7012V43.4192H86.2528V45.2556H85.2044C85.2044 44.3152 85.2044 43.3493 85.2044 42.4343H85.6781C86.0679 41.8489 86.3641 41.2056 86.556 40.528C86.7638 39.8072 86.8701 39.0608 86.8718 38.3103V38.2531H89.9791V42.4152H90.7433C90.7433 43.3557 90.7433 44.3215 90.7433 45.2365L90.6991 45.2556ZM80.4487 43.4192H79.2424V41.2143H77.1772V43.4192H75.914V38.2722H77.1772V40.2484H79.2424V38.2722H80.5055V43.4192H80.4487ZM69.7688 40.3183C69.7697 40.1589 69.7463 40.0003 69.6994 39.8481C69.6605 39.7038 69.5916 39.5695 69.4973 39.4541C69.4112 39.3509 69.3033 39.2684 69.1815 39.2126C69.0466 39.1601 68.9029 39.1342 68.7583 39.1364C68.6111 39.1343 68.465 39.1624 68.3288 39.219C68.1939 39.2799 68.0717 39.3661 67.9688 39.4732C67.8591 39.591 67.7695 39.7263 67.7036 39.8735C67.6437 40.016 67.6013 40.1654 67.5773 40.3183H69.7688ZM70.9246 41.2397H67.571C67.5786 41.4242 67.6148 41.6065 67.6783 41.7798C67.7455 41.9453 67.8467 42.0947 67.9752 42.2182C68.1106 42.3408 68.2697 42.4338 68.4425 42.4915C68.6471 42.5544 68.8602 42.5844 69.0741 42.5804C69.329 42.5813 69.5824 42.5427 69.8257 42.4661C70.0713 42.3821 70.3032 42.2622 70.5141 42.1102L70.5962 42.0467C70.5962 42.4025 70.5962 42.752 70.5962 43.1078C70.3473 43.2633 70.0739 43.3751 69.7878 43.4383C69.4502 43.5159 69.1045 43.5522 68.7583 43.5463C68.416 43.5515 68.0756 43.4934 67.7541 43.3747C67.4618 43.2617 67.2 43.081 66.9899 42.8473C66.7689 42.6043 66.603 42.316 66.5036 42.0022C66.392 41.6381 66.3387 41.2584 66.3457 40.8775C66.3414 40.5077 66.4012 40.14 66.5225 39.7909C66.641 39.4704 66.8213 39.1767 67.0531 38.9267C67.2745 38.6824 67.546 38.4894 67.8489 38.3611C68.1523 38.2316 68.4792 38.1667 68.8089 38.1705C69.128 38.1657 69.4452 38.2217 69.7436 38.3357C70.013 38.4516 70.2527 38.6276 70.4446 38.8504C70.6404 39.0899 70.7864 39.3665 70.8741 39.6638C70.9721 40.0109 71.0189 40.3706 71.013 40.7313V41.227L70.9246 41.2397ZM57.8448 40.6614V41.2968C57.8447 41.4634 57.8725 41.6288 57.9269 41.7861C57.9847 41.9366 58.0704 42.0746 58.1795 42.1928C58.2852 42.3098 58.4144 42.403 58.5584 42.4661C58.7057 42.5311 58.865 42.5636 59.0258 42.5614C59.2116 42.5628 59.3952 42.5215 59.5626 42.4406C59.727 42.3586 59.8682 42.2362 59.9732 42.0848C60.093 41.9138 60.1808 41.7221 60.2321 41.5193C60.2928 41.2654 60.3225 41.0051 60.3205 40.744C60.3237 40.5293 60.2961 40.3153 60.2384 40.1086C60.1921 39.9328 60.1104 39.7684 59.9984 39.6257C59.8986 39.4987 59.7711 39.3965 59.6258 39.327C59.4699 39.2614 59.3022 39.2289 59.1332 39.2317C58.956 39.229 58.78 39.2614 58.6153 39.327C58.4569 39.3985 58.3166 39.5049 58.2048 39.6384C58.0865 39.7761 57.9964 39.9358 57.9395 40.1086C57.8815 40.2869 57.8537 40.4738 57.8574 40.6614H57.8448ZM57.8448 42.8028V45.7576H56.5816C56.5816 43.2731 56.5816 40.7885 56.5816 38.2976H57.8448V39.0792C58.0054 38.8225 58.2212 38.6054 58.4763 38.4437C58.7866 38.2691 59.1377 38.1814 59.4932 38.1896C59.7904 38.1844 60.0854 38.2429 60.3584 38.3611C60.6081 38.4804 60.8249 38.6592 60.99 38.8822C61.1784 39.1213 61.3179 39.3956 61.4005 39.6892C61.4983 40.0255 61.5451 40.3746 61.5395 40.725C61.5443 41.1137 61.4932 41.5011 61.3879 41.8751C61.2897 42.2014 61.1334 42.5071 60.9268 42.7774C60.7283 43.0241 60.4781 43.2237 60.1942 43.362C59.8938 43.4949 59.5687 43.562 59.2405 43.559C58.9335 43.564 58.6307 43.4872 58.3627 43.3366C58.1622 43.1964 57.9942 43.0143 57.87 42.8028H57.8448ZM49.5586 40.5852L48.6112 37.8464C48.6112 37.7956 48.6112 37.7384 48.567 37.6622C48.567 37.7384 48.5354 37.8083 48.5165 37.8655L47.5754 40.6042L49.5586 40.5852ZM51.8512 43.4446H50.5375L49.9059 41.6527H47.2281L46.5965 43.4446H45.207C46.0954 41.0639 46.9839 38.6767 47.8723 36.2833H49.2617C50.1459 38.6683 51.0259 41.0554 51.9017 43.4446H51.8512Z" fill="#1A1F22"/>
<path fill-rule="evenodd" clip-rule="evenodd" d="M155.664 9.81117V20.3658L163.394 9.25834H167.183L167.127 27.9592H162.838L162.876 16.8709L155.146 27.9592H151.356L151.419 9.25834H155.664V9.81117ZM163.672 5.73803C163.653 6.30225 163.538 6.85897 163.331 7.3838C163.128 7.87494 162.83 8.3201 162.453 8.6928C162.07 9.07043 161.605 9.35325 161.095 9.51888C159.972 9.8664 158.77 9.8664 157.647 9.51888C157.137 9.35084 156.673 9.06336 156.295 8.6801C155.926 8.30533 155.637 7.85742 155.449 7.36474C155.246 6.8415 155.135 6.2868 155.12 5.72533V5.14708H158.335V5.71261C158.303 6.05937 158.395 6.40622 158.594 6.69118C158.701 6.79169 158.827 6.86809 158.966 6.91522C159.104 6.96235 159.251 6.97911 159.396 6.96441C159.547 6.97939 159.7 6.96285 159.844 6.91584C159.989 6.86883 160.122 6.79235 160.236 6.69118C160.434 6.40611 160.519 6.05744 160.476 5.71261V5.14708H163.735L163.672 5.73803ZM134.108 23.8924C134.435 23.898 134.761 23.853 135.074 23.759C135.321 23.6785 135.548 23.5488 135.744 23.3777C135.921 23.2185 136.059 23.0207 136.148 22.7995C136.249 22.5294 136.298 22.2427 136.293 21.9543C136.316 21.6892 136.284 21.4222 136.198 21.1704C136.112 20.9187 135.974 20.6879 135.794 20.4928C135.322 20.1296 134.732 19.9553 134.14 20.0035H131.317V23.9051L134.108 23.8924ZM145.912 9.81117L145.855 27.9592H141.548L141.605 9.25834H145.918V9.81117H145.912ZM134.544 15.924C135.364 15.9153 136.18 16.0353 136.963 16.2799C137.678 16.5059 138.342 16.8731 138.914 17.3601C139.53 17.9 140.008 18.5796 140.31 19.3427C140.921 21.0187 140.921 22.8582 140.31 24.5342C140.006 25.2979 139.523 25.976 138.902 26.5104C138.327 26.9994 137.662 27.3688 136.944 27.597C136.159 27.842 135.341 27.9621 134.519 27.9528H127.009L127.072 9.25198H131.361V15.9177L134.544 15.924ZM115.647 23.8924C115.991 23.8991 116.334 23.8541 116.664 23.759C116.914 23.6866 117.146 23.5633 117.346 23.3968C117.522 23.2583 117.663 23.0797 117.757 22.8757C117.854 22.6338 117.902 22.3743 117.896 22.1132C117.917 21.8685 117.882 21.6221 117.792 21.3938C117.702 21.1654 117.56 20.9613 117.378 20.7978C116.837 20.4455 116.195 20.2824 115.553 20.334H112.546V23.9115L115.647 23.8924ZM112.584 13.3251V16.4515H115.11C116.43 16.4515 117.094 15.9241 117.1 14.8629C117.106 13.8017 116.468 13.3251 115.249 13.3251H112.584ZM119.797 17.9193C120.417 18.173 120.966 18.5768 121.395 19.0949C122.11 20.0531 122.465 21.2346 122.399 22.4309C122.408 23.2524 122.244 24.0666 121.919 24.8201C121.591 25.5338 121.097 26.1572 120.479 26.6375C119.913 27.0826 119.271 27.4187 118.584 27.6288C117.815 27.8546 117.017 27.9659 116.216 27.9592H108.239L108.302 9.25834H115.767C116.538 9.24902 117.306 9.35176 118.047 9.56336C118.709 9.74806 119.329 10.061 119.872 10.4847C120.42 10.9168 120.854 11.4776 121.136 12.1178C121.419 12.786 121.557 13.5075 121.54 14.2338C121.575 15.2015 121.305 16.1555 120.769 16.9598C120.502 17.3351 120.17 17.6599 119.79 17.9193H119.797ZM97.4012 17.3792C98.0269 17.4344 98.6506 17.2532 99.1506 16.8709C99.3438 16.6639 99.4915 16.4182 99.584 16.15C99.6765 15.8818 99.7117 15.5969 99.6875 15.314C99.7106 15.0444 99.6763 14.7729 99.587 14.5176C99.4977 14.2623 99.3554 14.0291 99.1696 13.8335C98.6728 13.4602 98.0568 13.2838 97.4391 13.3378H95.4118V17.3919L97.4012 17.3792ZM97.7801 9.25834C98.6522 9.21134 99.5249 9.33876 100.348 9.63325C101.171 9.92774 101.927 10.3834 102.574 10.974C103.113 11.5139 103.531 12.164 103.799 12.8803C104.073 13.6484 104.208 14.4599 104.197 15.2759C104.205 16.1074 104.066 16.9337 103.786 17.716C103.518 18.4429 103.098 19.1036 102.555 19.654C101.961 20.2519 101.243 20.7098 100.452 20.9948C99.5776 21.2938 98.6591 21.44 97.7359 21.4269H95.3802V27.9401H91.0918L91.1486 9.23928L97.7801 9.25834ZM86.2982 24.4389V27.9592H74.7025L74.7657 9.25834H86.2224V13.3251H79.0351V15.797H85.5592V19.8638H79.0162V23.8924H86.3108L86.2982 24.4389ZM66.7195 27.9592H61.6669L61.7364 7.39016H51.2965L51.227 27.9592H45.625C45.6545 19.3173 45.6839 10.6775 45.7134 2.03979H67.3447C67.3195 10.6732 67.2921 19.313 67.2626 27.9592H66.7195Z" fill="#1A1F22"/>
<path fill-rule="evenodd" clip-rule="evenodd" d="M340.001 9.81109L339.937 27.9591H335.662V20.2386H328.468V27.9591H324.186L324.243 9.25826H328.531V16.0765H335.738V9.25826H340.026L340.001 9.81109ZM312.995 19.978L311.251 15.2123L309.47 19.978H312.995ZM314.441 23.994H307.999L306.515 27.9909H301.778L309.3 9.29002H313.235L320.63 27.9909H315.9L314.441 23.994ZM294.294 17.4109C294.919 17.4661 295.543 17.2849 296.043 16.9025C296.238 16.6965 296.386 16.451 296.479 16.1825C296.571 15.914 296.606 15.6287 296.58 15.3457C296.603 15.0761 296.569 14.8046 296.48 14.5493C296.39 14.294 296.248 14.0608 296.062 13.8652C295.565 13.4919 294.949 13.3155 294.332 13.3695H292.304V17.4236L294.294 17.4109ZM294.673 9.29002C295.545 9.24302 296.417 9.37044 297.24 9.66493C298.063 9.95942 298.82 10.4151 299.466 11.0057C300.006 11.5456 300.423 12.1957 300.692 12.912C300.966 13.6801 301.1 14.4915 301.09 15.3076C301.098 16.139 300.959 16.9653 300.679 17.7477C300.401 18.4774 299.97 19.1384 299.416 19.6857C298.822 20.2836 298.104 20.7414 297.313 21.0265C296.439 21.3255 295.52 21.4716 294.597 21.4586H292.241V27.9718H287.953L288.016 9.27096L294.673 9.29002ZM278.883 27.7431L272.29 20.2068V27.9337H268.002L268.065 9.23284H272.353V16.1082L278.176 9.23284H284.069L276.067 17.9574L285.18 27.9591H279.048L278.883 27.7431ZM250.109 14.723C249.633 15.1971 249.264 15.7694 249.029 16.4005C248.545 17.8171 248.545 19.3558 249.029 20.7723C249.264 21.4004 249.63 21.9704 250.103 22.4435C250.555 22.9195 251.101 23.2941 251.707 23.5428C252.36 23.795 253.054 23.92 253.753 23.9114C254.435 23.9297 255.113 23.8091 255.747 23.5568C256.38 23.3046 256.957 22.9259 257.442 22.4435C257.91 21.9618 258.272 21.3857 258.503 20.7533C258.756 20.0551 258.882 19.3169 258.875 18.5737C258.885 17.8299 258.766 17.09 258.522 16.3878C258.293 15.7612 257.933 15.1912 257.467 14.7166C256.988 14.2296 256.414 13.8472 255.782 13.5935C255.149 13.3398 254.472 13.2203 253.791 13.2424C253.113 13.217 252.436 13.3344 251.806 13.5872C251.175 13.84 250.603 14.2225 250.128 14.7103L250.109 14.723ZM260.707 11.5458C261.617 12.4327 262.327 13.5052 262.791 14.6912C263.258 15.9287 263.49 17.2437 263.473 18.5674C263.485 19.8929 263.244 21.2085 262.766 22.4435C262.295 23.6399 261.578 24.7227 260.663 25.6207C259.758 26.5034 258.683 27.191 257.505 27.6414C255.057 28.5346 252.374 28.5346 249.926 27.6414C248.766 27.1852 247.709 26.4979 246.819 25.6207C245.91 24.7209 245.199 23.6382 244.734 22.4435C243.816 19.942 243.816 17.1928 244.734 14.6912C245.213 13.5195 245.922 12.4576 246.82 11.5697C247.718 10.6817 248.785 9.98617 249.958 9.52513C252.406 8.63188 255.088 8.63188 257.536 9.52513C258.7 9.97964 259.759 10.6671 260.65 11.5458H260.707ZM241.602 13.2869H237.377L237.326 27.9019H233.044L233.088 13.2869H228.295V9.22014H242.189V13.2869H241.602ZM218.777 23.8542C219.121 23.8609 219.463 23.8159 219.794 23.7208C220.041 23.6476 220.271 23.5243 220.469 23.3586C220.645 23.2215 220.784 23.0424 220.874 22.8375C220.974 22.596 221.023 22.3365 221.019 22.075C221.04 21.8309 221.005 21.5851 220.916 21.3569C220.828 21.1288 220.688 20.9243 220.507 20.7596C219.964 20.4076 219.32 20.2447 218.676 20.2958H215.663V23.8733L218.777 23.8542ZM215.707 13.2869V16.4133H218.234C219.56 16.4133 220.217 15.8859 220.223 14.8247C220.229 13.7635 219.592 13.2869 218.379 13.2869H215.707ZM222.92 17.8811C223.543 18.1332 224.094 18.5372 224.524 19.0567C225.237 20.0157 225.59 21.1971 225.522 22.3927C225.531 23.2142 225.367 24.0284 225.042 24.7819C224.717 25.4969 224.222 26.1208 223.602 26.5993C223.037 27.045 222.395 27.3812 221.707 27.5906C220.936 27.8162 220.136 27.9275 219.333 27.921H211.375L211.432 9.22014H218.897C219.667 9.21081 220.435 9.31353 221.177 9.52513C221.84 9.70844 222.46 10.0216 223.002 10.4465C223.552 10.8768 223.986 11.438 224.265 12.0796C224.547 12.7485 224.687 13.4692 224.676 14.1956C224.703 15.1728 224.422 16.1335 223.874 16.9407C223.615 17.3206 223.292 17.6518 222.92 17.9192V17.8811ZM196.261 17.0678L193.476 9.47431L190.64 17.0678H196.261ZM198.156 22.2783H188.739L186.643 27.921H180.453L190.874 2.00159H196.122L206.379 27.921H200.19L198.156 22.2783Z" fill="#DC6823"/>
<path fill-rule="evenodd" clip-rule="evenodd" d="M12.921 0L0.0117188 7.46V0H12.921Z" fill="#DC6823"/>
<path fill-rule="evenodd" clip-rule="evenodd" d="M21.6181 41.6083H21.6118V37.3509H21.6055V29.5477L28.1801 33.3667V43.2286L25.9317 44.5313L21.6181 47.0413V41.6083Z" fill="#DC6823"/>
<path fill-rule="evenodd" clip-rule="evenodd" d="M1.56686 35.6161V33.9259V35.9465L7.99626 32.2674L8.02783 32.2864L8.52678 32.0005V39.524L15.0699 43.3239L21.6192 39.524V41.6083V47.0412L21.8087 46.9332L14.8046 51L7.80047 46.9332L7.80678 46.9269L1.56055 43.3049V35.6161H1.56686Z" fill="#1A1F22"/>
<path fill-rule="evenodd" clip-rule="evenodd" d="M13.4025 16.5531L15.0824 17.5253L16.7624 18.5039V22.3991L15.0824 23.3713L13.4025 24.3499L11.7225 23.3713L10.0488 22.3991V18.5039L13.4025 16.5531Z" fill="#1A1F22"/>
<path fill-rule="evenodd" clip-rule="evenodd" d="M3.15842 27.2093L10.0425 23.0854V22.4054L11.7225 23.3777L13.4025 24.3499L15.0825 23.3777L16.7561 22.4054V19.6985V20.9185V27.1712L15.973 27.616C13.4025 29.1029 10.592 30.7932 8.02152 32.2864H7.98362L1.56055 35.9466V28.1244L3.15842 27.2093Z" fill="#DC6823"/>
<path fill-rule="evenodd" clip-rule="evenodd" d="M10.042 22.399L6.67578 20.4482L10.042 18.5419V22.399ZM26.8229 8.84521V16.4704L16.762 22.3101V18.4975L15.0883 17.5253L13.421 16.5594L26.8229 8.84521Z" fill="#DC6823"/>
<path fill-rule="evenodd" clip-rule="evenodd" d="M26.8165 0V4.232L2.74102 18.1417L0 16.5531L0.0378943 12.105L20.9555 0H26.8165Z" fill="#DC6823"/>
</g>
<defs>
<clipPath id="clip0_56_3458">
<rect width="340" height="51" fill="white"/>
</clipPath>
</defs>
</svg>
