<svg width="280" height="502" viewBox="0 0 280 502" fill="none" xmlns="http://www.w3.org/2000/svg">
<g opacity="0.2">
<path fill-rule="evenodd" clip-rule="evenodd" d="M127.96 0L0.0976562 73.4276V0H127.96Z" fill="white"/>
<path fill-rule="evenodd" clip-rule="evenodd" d="M214.114 409.604H214.077V367.687L214.001 367.643V290.847L279.087 328.421V425.492L256.852 438.329L256.858 438.348L214.112 463.035L214.114 409.604Z" fill="white"/>
<path fill-rule="evenodd" clip-rule="evenodd" d="M15.4889 350.587V333.992L15.4926 353.809L79.1679 317.629L79.5062 317.826L84.4174 315.003V389.068L149.238 426.491L214.079 389.052V409.605H214.116L214.118 463.035L216.001 461.948L146.641 502L77.2763 461.951L77.2826 461.933L15.4883 426.258L15.4889 350.587Z" fill="#1A1F22"/>
<path fill-rule="evenodd" clip-rule="evenodd" d="M132.737 162.937L149.356 172.532L165.974 182.124V201.316V220.503L149.356 230.096L132.737 239.693L116.119 230.096L99.501 220.503V201.316V182.124L116.119 172.532L132.737 162.937Z" fill="#1A1F22"/>
<path fill-rule="evenodd" clip-rule="evenodd" d="M31.2938 267.784L99.5031 227.234V220.506L116.119 230.097L132.738 239.693L149.356 230.097L165.974 220.504V201.316V193.905L166.042 193.942V205.926H166.004V267.52L158.297 271.901C132.823 286.505 104.988 303.228 79.5047 317.825L79.1664 317.628L15.4912 353.808V276.842L31.2938 267.784Z" fill="white"/>
<path fill-rule="evenodd" clip-rule="evenodd" d="M265.584 87.0527V162.109L165.974 219.62V201.315V182.124L149.356 172.531L132.911 163.036L265.584 87.0527ZM99.5009 220.473L66.1543 201.268L99.5009 182.171V201.315V220.473Z" fill="white"/>
<path fill-rule="evenodd" clip-rule="evenodd" d="M265.585 0V41.7011L27.1806 178.611L0 162.956L0.368971 119.136L207.572 0H265.585Z" fill="white"/>
</g>
</svg>
