<svg width="219" height="394" viewBox="0 0 219 394" fill="none" xmlns="http://www.w3.org/2000/svg">
<g opacity="0.2">
<path fill-rule="evenodd" clip-rule="evenodd" d="M100.431 0L0.0761719 57.6305V0H100.431Z" fill="white"/>
<path fill-rule="evenodd" clip-rule="evenodd" d="M168.05 321.482H168.02V288.583L167.961 288.548V228.274L219.044 257.765V333.952L201.593 344.027L201.598 344.042L168.048 363.418L168.05 321.482Z" fill="white"/>
<path fill-rule="evenodd" clip-rule="evenodd" d="M12.1567 275.162V262.137L12.1596 277.69L62.1358 249.294L62.4014 249.449L66.256 247.233V305.365L117.132 334.736L168.022 305.352V321.483H168.052L168.053 363.418L169.531 362.565L115.093 394L60.6513 362.567L60.6562 362.553L12.1562 334.553L12.1567 275.162Z" fill="#DC6823"/>
<path fill-rule="evenodd" clip-rule="evenodd" d="M104.181 127.883L117.224 135.413L130.267 142.942V158.005V173.065L117.224 180.594L104.181 188.126L91.1378 180.594L78.0947 173.065V158.005V142.942L91.1378 135.413L104.181 127.883Z" fill="#DC6823"/>
<path fill-rule="evenodd" clip-rule="evenodd" d="M24.561 210.173L78.0958 178.347V173.066L91.1374 180.595L104.18 188.126L117.223 180.595L130.266 173.065V158.005V152.188L130.319 152.218V161.623H130.29V209.966L124.241 213.405C104.247 224.867 82.4011 237.992 62.3999 249.449L62.1344 249.294L12.1582 277.69V217.283L24.561 210.173Z" fill="white"/>
<path fill-rule="evenodd" clip-rule="evenodd" d="M208.447 68.3247V127.234L130.266 172.371V158.005V142.943L117.223 135.413L104.317 127.961L208.447 68.3247ZM78.0943 173.041L51.9219 157.967L78.0943 142.979V158.005V173.041Z" fill="white"/>
<path fill-rule="evenodd" clip-rule="evenodd" d="M208.447 0V32.7296L21.333 140.184L0 127.898L0.289591 93.5052L162.915 0H208.447Z" fill="white"/>
</g>
</svg>
