<svg width="37" height="36" viewBox="0 0 37 36" fill="none" xmlns="http://www.w3.org/2000/svg">
<g clip-path="url(#clip0_52_4370)">
<path d="M32.4906 21.5335L31.1674 21.7789L30.4168 23.2272L30.9619 25.3334L31.4995 24.7692L31.2345 23.4591L31.8601 22.7451L32.3874 22.6935L32.293 22.1277L32.4906 21.5335ZM34.1744 22.6556L34.7034 22.6849L35.3589 23.3717L35.15 24.6919L35.7113 25.2328L36.166 23.1055L35.3543 21.6901L34.0218 21.5011L34.2445 22.0863L34.1744 22.6556ZM1.83268 15.5119H6.07266V14.8161H3.6887V12.7394H3.45159V14.8161H3.13088V12.467L2.59006 12L2.37817 12.2435L2.80747 12.6141V14.8161H1.83268V15.5119ZM7.52553 22.3511H13.7445V23.2788H7.52553V22.3511Z" fill="#1A1F22"/>
<path d="M26.5406 8.5882L19.634 11.8279L17.8537 11.2637L17.6942 11.7792L18.3582 11.9897L17.091 17.5793L15.432 17.6943L14.6822 13.323C14.6709 13.2572 14.6408 13.1963 14.5957 13.1477L14.2362 12.7611C14.2047 12.7272 14.1667 12.7002 14.1246 12.6818C14.0824 12.6633 14.037 12.6538 13.991 12.6538H9.30512C9.23532 12.6538 9.1663 12.6687 9.10253 12.6974C9.03877 12.7262 8.98169 12.7681 8.93499 12.8207L8.88226 12.88C8.8194 12.9506 8.7776 13.0378 8.76169 13.1315L8.29068 15.8965H1.13968C1.05613 15.8965 0.974344 15.9209 0.904065 15.9666C0.833785 16.0123 0.777972 16.0775 0.743275 16.1544L0.205394 17.3471C0.179435 17.4045 0.166005 17.467 0.166016 17.5302V21.456C0.166016 21.5913 0.219101 21.721 0.313595 21.8167C0.408088 21.9123 0.536249 21.9661 0.669883 21.9661H15.0281L19.6861 20.6892L22.5973 13.7153L25.1689 11.7999L32.1165 18.8625L32.7451 21.2633L32.4412 22.1924L32.9218 25.1201L33.2316 25.3334L33.5321 25.1069L33.8893 22.1612L33.5466 21.246L34.113 18.6396L35.166 17.9958L34.861 17.4846L34.6529 17.6119L29.5814 10.8782C29.663 10.4731 29.5697 9.99719 28.7815 9.08693C28.6101 8.88905 28.4494 8.72487 28.2982 8.59172L28.4952 8.44475L28.1712 8.00002L27.8198 8.26224C27.6141 8.16654 27.431 8.14995 27.2689 8.21288C27.011 8.31247 26.8769 8.58999 26.8072 8.86289L26.5406 8.5882ZM5.36659 19.8747H1.3373V19.5738H5.36659V19.8747ZM5.36659 19.0501H1.3373V18.7493H5.36659V19.0501ZM5.36659 18.2255H1.3373V17.9246H5.36659V18.2255ZM5.36659 17.4009H1.3373V17.1H5.36659V17.4009ZM9.18266 14.0133H10.717V17.046L8.74797 16.5651L9.18266 14.0133ZM11.3115 17.1912V14.0133H14.0311L14.7189 18.0234L11.3115 17.1912ZM17.7484 17.5336L18.9619 12.181L19.4744 12.3434L18.279 17.4969L17.7484 17.5336ZM21.0455 13.6257C20.913 13.6257 20.786 13.5724 20.6923 13.4776C20.5986 13.3828 20.546 13.2542 20.546 13.1201C20.546 12.986 20.5986 12.8574 20.6923 12.7626C20.786 12.6678 20.913 12.6145 21.0455 12.6145C21.1779 12.6145 21.305 12.6678 21.3987 12.7626C21.4923 12.8574 21.545 12.986 21.545 13.1201C21.545 13.2542 21.4923 13.3828 21.3987 13.4776C21.305 13.5724 21.1779 13.6257 21.0455 13.6257ZM25.9952 10.9356C25.8627 10.9356 25.7356 10.8823 25.642 10.7875C25.5483 10.6927 25.4957 10.5641 25.4957 10.43C25.4957 10.2959 25.5483 10.1673 25.642 10.0725C25.7356 9.97771 25.8627 9.92445 25.9952 9.92445C26.1276 9.92445 26.2547 9.97771 26.3483 10.0725C26.442 10.1673 26.4946 10.2959 26.4946 10.43C26.4946 10.5641 26.442 10.6927 26.3483 10.7875C26.2547 10.8823 26.1276 10.9356 25.9952 10.9356ZM27.2809 9.35088L27.6267 9.09285L29.1892 11.1675C29.1402 11.3065 29.0888 11.4569 29.0565 11.6343L27.4215 9.49582L27.2809 9.35088ZM33.4814 18.9208C33.4814 19.0024 33.4494 19.0806 33.3924 19.1383C33.3354 19.196 33.2581 19.2284 33.1776 19.2284C33.097 19.2284 33.0197 19.196 32.9627 19.1383C32.9057 19.0806 32.8737 19.0024 32.8737 18.9208C32.8737 18.8393 32.9057 18.761 32.9627 18.7034C33.0197 18.6457 33.097 18.6133 33.1776 18.6133C33.2581 18.6133 33.3354 18.6457 33.3924 18.7034C33.4494 18.761 33.4814 18.8393 33.4814 18.9208ZM33.9533 18.0396L29.3155 11.9732C29.3189 11.7682 29.3557 11.6008 29.4019 11.4499L34.2352 17.8673L33.9533 18.0396ZM28.5625 9.28116C29.0604 9.85627 29.2532 10.2183 29.2993 10.5037L28.0172 8.80138L28.0581 8.77084C28.2009 8.89121 28.3677 9.05626 28.5625 9.28116ZM27.3732 8.48794C27.4109 8.47338 27.4632 8.46505 27.533 8.47628L27.1464 8.76473C27.199 8.63355 27.2719 8.527 27.3732 8.48794Z" fill="#1A1F22"/>
<path d="M18.9701 11.0208L24.905 8.33335L25.166 8.90846L19.2311 11.5958L18.9701 11.0208Z" fill="#1A1F22"/>
<path d="M15.3793 28V27.5992H15.7476V28H16.1157V27.5992H16.484V28H16.8522V27.5992H17.2205V28H17.5886V27.5992H17.9569V28H18.3251V27.5992H18.6933V28H19.0616V27.5992H19.4298V28H19.798V27.5992H20.1662V28H20.5345V27.5992H20.9027V28H21.271V27.5992H21.6391V28H22.0074V27.5992H22.3756V28H22.7438L22.7407 27.5992C22.8522 27.5992 22.9634 27.5881 23.0726 27.566L23.1515 27.9594C23.2858 27.9325 23.4171 27.8924 23.5434 27.8397L23.3884 27.4691C23.4902 27.4264 23.5877 27.3739 23.6793 27.3122L23.904 27.6457C24.0174 27.5694 24.1231 27.4823 24.2196 27.3856L23.9345 27.1018C24.0125 27.0235 24.0827 26.9379 24.1441 26.8461L24.4789 27.0693C24.5548 26.9557 24.6194 26.8348 24.6718 26.7085L24.3 26.555C24.3424 26.4532 24.3745 26.3474 24.3959 26.2392L24.7902 26.3166C24.8161 26.1847 24.8293 26.0491 24.8293 25.9137V25.91L24.428 25.9134C24.428 25.8 24.4164 25.6891 24.3948 25.5818L24.7886 25.5028C24.7616 25.3687 24.7214 25.2376 24.6687 25.1114L24.2976 25.2663C24.2549 25.1645 24.2023 25.0672 24.1405 24.9757L24.4743 24.7513C24.398 24.638 24.3108 24.5324 24.2139 24.436L23.9298 24.7209C23.8514 24.643 23.7656 24.5729 23.6737 24.5115L23.8972 24.1771C23.7833 24.1013 23.6623 24.0368 23.5359 23.9845L23.3822 24.3559C23.2803 24.3136 23.1744 24.2816 23.0661 24.2602L23.1435 23.8664C23.0107 23.8404 22.8757 23.8274 22.7404 23.8274H22.7365L22.7403 24.2282H22.3683V23.8274H22.0001V24.2282H21.6319V23.8274H21.2636V24.2282H20.8954V23.8274H20.5272V24.2282H20.159V23.8274H19.7907V24.2282H19.4225V23.8274H19.0543V24.2282H18.686V23.8274H18.3178V24.2282H17.9496V23.8274H17.5814V24.2282H17.2131V23.8274H16.8449V24.2282H16.4767V23.8274H16.1085V24.2282H15.7402V23.8274H15.372V24.2282H15.0038V23.8274H14.6356V24.2282H14.2673V23.8274H13.8991V24.2282H13.5309V23.8274H13.1627V24.2282H12.7944V23.8274H12.4262V24.2282H12.058V23.8274H11.6897V24.2282H11.3215V23.8274H10.9533V24.2282H10.5851V23.8274H10.2168V24.2282H9.84865V23.8274H9.48041V24.2282H9.11216V23.8274H8.74392V24.2282H8.37574V23.8274H8.0075V24.2282H7.63925V23.8274H7.27101V24.2282H6.90283V23.8274H6.53459V24.2282H6.16634V23.8274H5.7981V24.2282H5.42986V23.8274H5.06162V24.2282H4.69295V23.8274H4.3247V24.2282H3.95646V23.8274H3.58822V24.2282H3.58767C3.47522 24.2282 3.36534 24.2395 3.25894 24.2608L3.18101 23.8671C3.04666 23.8937 2.91527 23.9335 2.78876 23.9859L2.94304 24.357C2.8411 24.3994 2.74356 24.4518 2.65182 24.5132L2.42791 24.1792C2.31432 24.2552 2.20841 24.3421 2.1117 24.4387L2.39627 24.723C2.31813 24.8011 2.24777 24.8865 2.18616 24.9781L1.85175 24.7544C1.77559 24.8679 1.71074 24.9886 1.65813 25.1148L2.02955 25.269C1.98701 25.3708 1.95469 25.4765 1.93305 25.5846L1.53897 25.5065C1.51245 25.6405 1.49908 25.7768 1.49902 25.9133L1.90031 25.9134C1.90031 26.0258 1.91167 26.1359 1.93293 26.2422L1.53885 26.3202C1.56551 26.4544 1.6054 26.5856 1.65795 26.7119L2.02937 26.5577C2.07188 26.6596 2.12429 26.757 2.18585 26.8486L1.85151 27.0724C1.92765 27.1858 2.01465 27.2916 2.11128 27.3882L2.3959 27.1039C2.47409 27.182 2.55968 27.2523 2.65145 27.3138L2.42742 27.6477C2.54109 27.7238 2.66198 27.7886 2.78833 27.8411L2.94268 27.4702C3.04455 27.5126 3.15038 27.5449 3.25864 27.5665L3.18033 27.96C3.31379 27.9866 3.45085 27.9999 3.58773 27.9999H3.59555V27.5991H3.96379V27.9999H4.33203V27.5991H4.70027V27.9999H5.06852V27.5991H5.43676V27.9999H5.805V27.5991H6.17325V27.9999H6.54143V27.5991H6.90967V27.9999H7.27791V27.5991H7.64609V27.9999H8.01434V27.5991H8.38258V27.9999H8.75082V27.5991H9.119V27.9999H9.48725V27.5991H9.85549V27.9999H10.2237V27.5991H10.5919V27.9999H10.9602V27.5991H11.3284V27.9999H11.6966V27.5991H12.0648V27.9999H12.4331V27.5991H12.8013V27.9999H13.1695V27.5991H13.5377V27.9999H13.906V27.5991H14.2742V27.9999H14.6424V27.5991H15.0106V27.9999L15.3793 28ZM3.56861 24.996C4.01833 24.996 4.39189 25.3189 4.47123 25.7452H21.8573C21.9367 25.319 22.3102 24.996 22.7599 24.996C23.2674 24.996 23.6787 25.4069 23.6787 25.9138C23.6787 26.4206 23.2674 26.8315 22.7599 26.8315C22.3102 26.8315 21.9367 26.5086 21.8573 26.0823H4.47123C4.39189 26.5085 4.01833 26.8315 3.56861 26.8315C3.06117 26.8315 2.64987 26.4206 2.64987 25.9138C2.64987 25.4069 3.06117 24.996 3.56861 24.996Z" fill="#DC6823"/>
</g>
<defs>
<clipPath id="clip0_52_4370">
<rect width="36" height="36" fill="white" transform="translate(0.166016)"/>
</clipPath>
</defs>
</svg>
