<svg width="37" height="36" viewBox="0 0 37 36" fill="none" xmlns="http://www.w3.org/2000/svg">
<g clip-path="url(#clip0_49_904)">
<path d="M34.8129 11.909V7.80647L34.9187 7.77349C36.1032 7.40463 36.7669 6.1409 36.3982 4.95641C36.0294 3.77177 34.7655 3.1083 33.5811 3.47681L27.6733 5.31606C27.6514 5.24551 27.6158 5.17999 27.5685 5.12328C27.5212 5.06657 27.4632 5.0198 27.3977 4.98566C27.3323 4.95121 27.2607 4.93001 27.1871 4.92325C27.1135 4.91649 27.0393 4.92432 26.9688 4.94628L5.48605 11.6344C5.12535 11.7462 4.79698 11.9262 4.51573 12.1611C4.20143 12.4241 4.38987 12.9373 4.7998 12.9373H7.2502C7.43794 12.9373 7.61372 13.0316 7.71849 13.1877L9.54733 15.9313C9.60008 16.0101 9.6769 16.0699 9.76635 16.1016C9.85581 16.1332 9.9531 16.1352 10.0437 16.107L12.0041 15.4967C12.0935 15.4688 12.1717 15.413 12.2272 15.3375C12.2827 15.262 12.3127 15.1707 12.3127 15.077V12.6891C12.3127 11.2729 13.4608 10.1248 14.877 10.1248H20.7503C20.8474 10.1248 20.9429 10.1499 21.0274 10.1977C21.1119 10.2455 21.1826 10.3144 21.2326 10.3976L22.1394 11.909C22.2016 12.0128 22.2969 12.0926 22.41 12.1357C22.523 12.1788 22.6473 12.1827 22.7628 12.1467L28.6408 10.3168C28.9375 10.2247 29.1035 9.90967 29.0106 9.61295L33.6879 8.15677V12.3748C33.6879 12.524 33.7471 12.6671 33.8526 12.7726C33.9581 12.8781 34.1012 12.9373 34.2504 12.9373C34.5605 12.9373 34.8129 13.1897 34.8129 13.4998C34.8129 13.81 34.5605 14.0623 34.2504 14.0623C33.9402 14.0623 33.6879 13.81 33.6879 13.4998C33.6879 13.3507 33.6286 13.2076 33.5231 13.1021C33.4176 12.9966 33.2745 12.9373 33.1254 12.9373C32.9762 12.9373 32.8331 12.9966 32.7276 13.1021C32.6221 13.2076 32.5628 13.3507 32.5628 13.4998C32.5628 14.4303 33.3198 15.1874 34.2504 15.1874C35.1809 15.1874 35.9379 14.4303 35.9379 13.4998C35.9379 12.7666 35.4675 12.1413 34.8129 11.909ZM28.6763 8.53864L28.0076 6.39023L33.9155 4.55105C34.5078 4.36669 35.1397 4.69857 35.3241 5.29081C35.5085 5.88306 35.1766 6.51496 34.5843 6.69932L34.0872 6.85408L34.0791 6.85661L28.6763 8.53864Z" fill="#DC6823"/>
<path fill-rule="evenodd" clip-rule="evenodd" d="M26.7731 20.9768C26.6678 20.8715 26.5249 20.8123 26.3759 20.8123H2.75001C2.60083 20.8123 2.45775 20.8716 2.35226 20.9771C2.24677 21.0826 2.18751 21.2256 2.18751 21.3748V28.1249C2.18751 28.274 2.24677 28.4171 2.35226 28.5226C2.45775 28.6281 2.60083 28.6874 2.75001 28.6874H2.76344C3.06973 28.6874 3.31287 28.4368 3.31252 28.1306V28.1249C3.31252 25.3292 5.57941 23.0623 8.37505 23.0623C11.1707 23.0623 13.4376 25.3292 13.4376 28.1249V28.1306C13.4372 28.4368 13.6804 28.6874 13.9867 28.6874H17.951C18.2573 28.6874 18.5005 28.4368 18.5001 28.1306V28.1249C18.5001 25.3292 20.767 23.0623 23.5626 23.0623C26.3583 23.0623 28.6252 25.3292 28.6252 28.1249V28.1306C28.6248 28.4368 28.868 28.6874 29.1742 28.6874H29.7502C29.8994 28.6874 30.0424 28.6281 30.1479 28.5226C30.2534 28.4171 30.3127 28.274 30.3127 28.1249V24.7491C30.3127 24.6001 30.2535 24.4572 30.1481 24.3519L26.7731 20.9768ZM23.5626 20.2498C23.7118 20.2498 23.8549 20.1905 23.9604 20.0851C24.0659 19.9796 24.1251 19.8365 24.1251 19.6873V16.8748C24.1251 16.7728 24.0974 16.6728 24.045 16.5854L20.67 10.9604C20.62 10.8771 20.5493 10.8081 20.4648 10.7603C20.3802 10.7124 20.2847 10.6873 20.1876 10.6873H15.4395C14.0255 10.6873 12.8751 11.8376 12.8751 13.2517V16.8748H9.23856L7.15554 13.7502C7.10419 13.6732 7.0346 13.61 6.95296 13.5663C6.87131 13.5226 6.78014 13.4997 6.68754 13.4997H2.93444C1.5921 13.4998 0.5 14.5919 0.5 15.9342V19.6873C0.5 19.8365 0.559264 19.9796 0.664753 20.0851C0.770243 20.1905 0.913318 20.2498 1.0625 20.2498H23.5626ZM8.375 32.6248C10.8603 32.6248 12.875 30.6101 12.875 28.1248C12.875 25.6395 10.8603 23.6248 8.375 23.6248C5.88972 23.6248 3.875 25.6395 3.875 28.1248C3.875 30.6101 5.88972 32.6248 8.375 32.6248ZM28.0626 28.1248C28.0626 30.6101 26.0479 32.6248 23.5626 32.6248C21.0773 32.6248 19.0626 30.6101 19.0626 28.1248C19.0626 25.6395 21.0773 23.6248 23.5626 23.6248C26.0479 23.6248 28.0626 25.6395 28.0626 28.1248ZM14.5625 24.1873H17.3751C17.5243 24.1873 17.6673 24.1281 17.7728 24.0226C17.8783 23.9171 17.9376 23.774 17.9376 23.6248C17.9376 23.4756 17.8783 23.3326 17.7728 23.2271C17.6673 23.1216 17.5243 23.0623 17.3751 23.0623H14.5625C14.4134 23.0623 14.2703 23.1216 14.1648 23.2271C14.0593 23.3326 14 23.4756 14 23.6248C14 23.774 14.0593 23.9171 14.1648 24.0226C14.2703 24.1281 14.4134 24.1873 14.5625 24.1873ZM17.3751 25.3123H14.5625C14.4134 25.3123 14.2703 25.3716 14.1648 25.4771C14.0593 25.5826 14 25.7256 14 25.8748C14 26.024 14.0593 26.1671 14.1648 26.2726C14.2703 26.3781 14.4134 26.4373 14.5625 26.4373H17.3751C17.5243 26.4373 17.6673 26.3781 17.7728 26.2726C17.8783 26.1671 17.9376 26.024 17.9376 25.8748C17.9376 25.7256 17.8783 25.5826 17.7728 25.4771C17.6673 25.3716 17.5243 25.3123 17.3751 25.3123ZM22.5282 16.1256L20.8179 13.3468C20.7409 13.2216 20.6331 13.1183 20.5048 13.0466C20.3765 12.9749 20.232 12.9373 20.0851 12.9373H18.5001C17.2718 12.9373 16.2707 13.9263 16.2504 15.1492C16.2295 16.4075 17.2865 17.4373 18.5449 17.4373H21.7954C22.4686 17.4373 22.8811 16.699 22.5282 16.1256ZM8.375 30.3748C9.61764 30.3748 10.625 29.3675 10.625 28.1248C10.625 26.8822 9.61764 25.8748 8.375 25.8748C7.13236 25.8748 6.125 26.8822 6.125 28.1248C6.125 29.3675 7.13236 30.3748 8.375 30.3748ZM25.8126 28.1248C25.8126 29.3675 24.8052 30.3748 23.5626 30.3748C22.32 30.3748 21.3126 29.3675 21.3126 28.1248C21.3126 26.8822 22.32 25.8748 23.5626 25.8748C24.8052 25.8748 25.8126 26.8822 25.8126 28.1248Z" fill="black"/>
</g>
<defs>
<clipPath id="clip0_49_904">
<rect width="36" height="36" fill="white" transform="translate(0.5)"/>
</clipPath>
</defs>
</svg>
