<svg width="37" height="36" viewBox="0 0 37 36" fill="none" xmlns="http://www.w3.org/2000/svg">
<g clip-path="url(#clip0_49_909)">
<path d="M3.66604 0H33.6654C35.3228 0 36.667 1.34385 36.667 3.00088V32.9941C36.667 34.6524 35.3228 36 33.6654 36H3.66604C2.00483 36 0.666992 34.6524 0.666992 32.9941V3.00088C0.666992 1.34385 2.00483 0 3.66604 0Z" fill="#1A1F22"/>
<path d="M26.1618 5.25H11.1673L7.42934 11.6065H29.9046L26.1618 5.25ZM29.9168 11.6328L18.6761 30.75H26.1618L33.667 18.0036L29.9168 11.6328ZM3.66699 18.0036L11.1673 30.75H18.6566L7.41349 11.6328L3.66699 18.0036Z" fill="#DC6823"/>
</g>
<defs>
<clipPath id="clip0_49_909">
<rect width="36" height="36" fill="white" transform="translate(0.666992)"/>
</clipPath>
</defs>
</svg>
