<svg width="37" height="36" viewBox="0 0 37 36" fill="none" xmlns="http://www.w3.org/2000/svg">
<g clip-path="url(#clip0_52_4367)">
<path d="M34.6459 11.909V7.80649L34.7517 7.77351C35.9363 7.40465 36.5999 6.14091 36.2312 4.95642C35.8624 3.77179 34.5985 3.10832 33.4141 3.47683L27.5063 5.31607C27.4845 5.24553 27.4488 5.18001 27.4015 5.1233C27.3542 5.06659 27.2962 5.01981 27.2307 4.98567C27.1653 4.95123 27.0937 4.93002 27.0201 4.92327C26.9465 4.91651 26.8723 4.92434 26.8018 4.9463L5.31906 11.6345C4.95835 11.7463 4.62999 11.9263 4.34874 12.1611C4.03444 12.4241 4.22288 12.9374 4.63281 12.9374H7.08321C7.27095 12.9374 7.44673 13.0316 7.55149 13.1877L9.38033 15.9313C9.43308 16.0102 9.50991 16.0699 9.59936 16.1016C9.68881 16.1332 9.78611 16.1352 9.87674 16.1071L11.8371 15.4967C11.9265 15.4688 12.0047 15.413 12.0602 15.3375C12.1158 15.262 12.1457 15.1707 12.1457 15.077V12.6892C12.1457 11.2729 13.2938 10.1248 14.7101 10.1248H20.5833C20.6804 10.1248 20.7759 10.1499 20.8604 10.1977C20.9449 10.2455 21.0156 10.3144 21.0656 10.3977L21.9724 11.909C22.0346 12.0128 22.1299 12.0926 22.243 12.1357C22.356 12.1789 22.4803 12.1827 22.5958 12.1468L28.4738 10.3168C28.7705 10.2247 28.9365 9.90968 28.8436 9.61296L33.5209 8.15678V12.3749C33.5209 12.524 33.5801 12.6671 33.6856 12.7726C33.7911 12.8781 33.9342 12.9374 34.0834 12.9374C34.3935 12.9374 34.6459 13.1897 34.6459 13.4999C34.6459 13.81 34.3935 14.0624 34.0834 14.0624C33.7732 14.0624 33.5209 13.81 33.5209 13.4999C33.5209 13.3507 33.4616 13.2076 33.3561 13.1021C33.2506 12.9966 33.1075 12.9374 32.9584 12.9374C32.8092 12.9374 32.6661 12.9966 32.5606 13.1021C32.4551 13.2076 32.3959 13.3507 32.3959 13.4999C32.3959 14.4303 33.1528 15.1874 34.0834 15.1874C35.0139 15.1874 35.7709 14.4303 35.7709 13.4999C35.7709 12.7666 35.3006 12.1413 34.6459 11.909ZM28.5093 8.53865L27.8406 6.39024L33.7485 4.55107C34.3408 4.36671 34.9728 4.69858 35.1571 5.29083C35.3415 5.88308 35.0096 6.51498 34.4174 6.69934L33.9202 6.8541L33.9122 6.85663L28.5093 8.53865Z" fill="#DC6823"/>
<path fill-rule="evenodd" clip-rule="evenodd" d="M26.6061 20.9769C26.5008 20.8716 26.3579 20.8124 26.2089 20.8124H2.58302C2.43384 20.8124 2.29076 20.8716 2.18527 20.9771C2.07978 21.0826 2.02052 21.2257 2.02052 21.3749V28.1249C2.02052 28.2741 2.07978 28.4172 2.18527 28.5227C2.29076 28.6282 2.43384 28.6874 2.58302 28.6874H2.59645C2.90273 28.6874 3.14588 28.4369 3.14552 28.1306V28.1249C3.14552 25.3293 5.41241 23.0624 8.20805 23.0624C11.0037 23.0624 13.2706 25.3293 13.2706 28.1249V28.1306C13.2702 28.4369 13.5134 28.6874 13.8197 28.6874H17.784C18.0903 28.6874 18.3335 28.4369 18.3331 28.1306V28.1249C18.3331 25.3293 20.6 23.0624 23.3956 23.0624C26.1913 23.0624 28.4582 25.3293 28.4582 28.1249V28.1306C28.4578 28.4369 28.701 28.6874 29.0072 28.6874H29.5832C29.7324 28.6874 29.8754 28.6282 29.9809 28.5227C30.0864 28.4172 30.1457 28.2741 30.1457 28.1249V24.7491C30.1457 24.6001 30.0865 24.4573 29.9812 24.3519L26.6061 20.9769ZM23.3956 20.2499C23.5448 20.2499 23.6879 20.1906 23.7934 20.0851C23.8989 19.9796 23.9581 19.8366 23.9581 19.6874V16.8749C23.9581 16.7729 23.9304 16.6728 23.878 16.5854L20.503 10.9604C20.453 10.8771 20.3823 10.8082 20.2978 10.7603C20.2132 10.7125 20.1178 10.6873 20.0206 10.6873H15.2725C13.8585 10.6873 12.7081 11.8377 12.7081 13.2518V16.8749H9.07157L6.98855 13.7503C6.9372 13.6732 6.86761 13.61 6.78597 13.5663C6.70432 13.5226 6.61315 13.4998 6.52054 13.4998H2.76745C1.42511 13.4998 0.333008 14.592 0.333008 15.9343V19.6874C0.333008 19.8366 0.392271 19.9796 0.497761 20.0851C0.603251 20.1906 0.746326 20.2499 0.895511 20.2499H23.3956ZM8.20801 32.6249C10.6933 32.6249 12.708 30.6101 12.708 28.1249C12.708 25.6396 10.6933 23.6249 8.20801 23.6249C5.72273 23.6249 3.70801 25.6396 3.70801 28.1249C3.70801 30.6101 5.72273 32.6249 8.20801 32.6249ZM27.8956 28.1249C27.8956 30.6101 25.8809 32.6249 23.3956 32.6249C20.9103 32.6249 18.8956 30.6101 18.8956 28.1249C18.8956 25.6396 20.9103 23.6249 23.3956 23.6249C25.8809 23.6249 27.8956 25.6396 27.8956 28.1249ZM14.3956 24.1874H17.2081C17.3573 24.1874 17.5003 24.1281 17.6058 24.0226C17.7113 23.9171 17.7706 23.7741 17.7706 23.6249C17.7706 23.4757 17.7113 23.3326 17.6058 23.2271C17.5003 23.1216 17.3573 23.0624 17.2081 23.0624H14.3956C14.2464 23.0624 14.1033 23.1216 13.9978 23.2271C13.8923 23.3326 13.8331 23.4757 13.8331 23.6249C13.8331 23.7741 13.8923 23.9171 13.9978 24.0226C14.1033 24.1281 14.2464 24.1874 14.3956 24.1874ZM17.2081 25.3124H14.3956C14.2464 25.3124 14.1033 25.3717 13.9978 25.4771C13.8923 25.5826 13.8331 25.7257 13.8331 25.8749C13.8331 26.0241 13.8923 26.1672 13.9978 26.2726C14.1033 26.3781 14.2464 26.4374 14.3956 26.4374H17.2081C17.3573 26.4374 17.5003 26.3781 17.6058 26.2726C17.7113 26.1672 17.7706 26.0241 17.7706 25.8749C17.7706 25.7257 17.7113 25.5826 17.6058 25.4771C17.5003 25.3717 17.3573 25.3124 17.2081 25.3124ZM22.3612 16.1257L20.6509 13.3468C20.5739 13.2217 20.4661 13.1183 20.3378 13.0466C20.2095 12.975 20.065 12.9373 19.9181 12.9373H18.3331C17.1048 12.9373 16.1037 13.9264 16.0834 15.1493C16.0625 16.4075 17.1195 17.4373 18.3779 17.4373H21.6284C22.3016 17.4373 22.7141 16.6991 22.3612 16.1257ZM8.20801 30.3749C9.45065 30.3749 10.458 29.3675 10.458 28.1249C10.458 26.8823 9.45065 25.8749 8.20801 25.8749C6.96537 25.8749 5.95801 26.8823 5.95801 28.1249C5.95801 29.3675 6.96537 30.3749 8.20801 30.3749ZM25.6456 28.1249C25.6456 29.3675 24.6382 30.3749 23.3956 30.3749C22.153 30.3749 21.1456 29.3675 21.1456 28.1249C21.1456 26.8823 22.153 25.8749 23.3956 25.8749C24.6382 25.8749 25.6456 26.8823 25.6456 28.1249Z" fill="black"/>
</g>
<defs>
<clipPath id="clip0_52_4367">
<rect width="36" height="36" fill="white" transform="translate(0.333008)"/>
</clipPath>
</defs>
</svg>
