<svg width="36" height="36" viewBox="0 0 36 36" fill="none" xmlns="http://www.w3.org/2000/svg">
<path d="M35.1327 17.1164L33.281 13.6085C33.1053 13.2756 32.6537 13.0033 32.2773 13.0033H27.8522C27.4759 13.0033 27.168 13.3113 27.168 13.6875V19.5804H26.6524V13.7528C26.6524 13.5367 26.4942 13.3562 26.288 13.3202V11.8511L25.336 10.8991L25.0672 11.1679L25.9079 12.0086V13.3203C25.7017 13.3563 25.5435 13.5367 25.5435 13.7528V19.5804H0.729322V21.8937H0.389568C0.111029 21.8937 0.111029 22.9065 0.389568 22.9065H3.46845V23.4026H4.07292C4.04971 23.2632 4.03799 23.1222 4.03787 22.9809C4.03787 21.5598 5.1941 20.4035 6.61529 20.4035C8.03653 20.4035 9.19295 21.5598 9.19295 22.9809C9.19295 23.1245 9.18055 23.2653 9.1579 23.4026H9.8554C9.8322 23.2632 9.82048 23.1222 9.82036 22.9809C9.82036 21.5598 10.9766 20.4035 12.3978 20.4035C13.819 20.4035 14.9754 21.5598 14.9754 22.9809C14.9754 23.1245 14.963 23.2653 14.9403 23.4026H15.5448V22.9065H28.1984V23.4026H28.8029C28.7797 23.2632 28.768 23.1222 28.7678 22.9809C28.7678 21.5598 29.9241 20.4035 31.3452 20.4035C32.7664 20.4035 33.9229 21.5598 33.9229 22.9809C33.9229 23.1245 33.9105 23.2653 33.8879 23.4026H34.4923V22.9065H35.7912C36.0697 22.9065 36.0697 21.8937 35.7912 21.8937H35.4525V18.4058C35.4522 18.0295 35.3085 17.4492 35.1327 17.1164ZM28.767 13.6875V16.9536H27.8522V13.6875H28.767ZM30.983 18.0379H29.4342V17.6729H30.983V18.0379ZM29.1321 16.9536V13.6875H32.2772C32.3991 13.6875 32.6188 13.8204 32.6758 13.9279L34.273 16.9536H29.1321Z" fill="#1A1F22"/>
<path d="M8.7366 22.9809C8.7366 21.8095 7.78696 20.8598 6.61529 20.8598C5.44379 20.8598 4.49397 21.8095 4.49397 22.9809C4.49397 24.1525 5.44379 25.1023 6.61529 25.1023C7.78702 25.1023 8.7366 24.1525 8.7366 22.9809ZM6.61517 24.1899C5.94872 24.1899 5.40642 23.6476 5.40642 22.9809C5.40642 22.3143 5.94872 21.7721 6.61517 21.7721C7.28186 21.7721 7.82416 22.3143 7.82416 22.9809C7.82422 23.6476 7.28192 24.1899 6.61517 24.1899Z" fill="#1A1F22"/>
<path d="M7.05285 22.981C7.05285 22.9235 7.04153 22.8666 7.01954 22.8136C6.99755 22.7605 6.96532 22.7122 6.92469 22.6716C6.88406 22.631 6.83582 22.5987 6.78273 22.5767C6.72965 22.5548 6.67275 22.5434 6.61528 22.5434C6.55782 22.5434 6.50092 22.5548 6.44784 22.5767C6.39475 22.5987 6.34651 22.631 6.30588 22.6716C6.26525 22.7122 6.23302 22.7605 6.21103 22.8136C6.18904 22.8666 6.17772 22.9235 6.17772 22.981C6.17772 23.0971 6.22382 23.2084 6.30588 23.2904C6.38794 23.3725 6.49923 23.4186 6.61528 23.4186C6.73133 23.4186 6.84263 23.3725 6.92469 23.2904C7.00675 23.2084 7.05285 23.0971 7.05285 22.981ZM14.519 22.9809C14.519 21.8095 13.5694 20.8598 12.3977 20.8598C11.2262 20.8598 10.2764 21.8095 10.2764 22.9809C10.2764 24.1525 11.2262 25.1023 12.3977 25.1023C13.5694 25.1023 14.519 24.1525 14.519 22.9809ZM12.3976 24.1899C11.7311 24.1899 11.1888 23.6476 11.1888 22.9809C11.1888 22.3143 11.7311 21.7721 12.3976 21.7721C13.0643 21.7721 13.6066 22.3143 13.6066 22.9809C13.6066 23.6476 13.0643 24.1899 12.3976 24.1899Z" fill="#1A1F22"/>
<path d="M12.8352 22.981C12.8352 22.865 12.7891 22.7537 12.7071 22.6716C12.625 22.5896 12.5137 22.5435 12.3977 22.5435C12.2816 22.5435 12.1704 22.5896 12.0883 22.6716C12.0063 22.7537 11.9602 22.865 11.9602 22.981C11.9602 23.097 12.0063 23.2083 12.0883 23.2904C12.1704 23.3724 12.2816 23.4185 12.3977 23.4185C12.5137 23.4185 12.625 23.3724 12.7071 23.2904C12.7891 23.2083 12.8352 23.097 12.8352 22.981ZM33.4664 22.9809C33.4664 21.8095 32.5168 20.8598 31.3451 20.8598C30.1736 20.8598 29.2238 21.8095 29.2238 22.9809C29.2238 24.1525 30.1736 25.1023 31.3451 25.1023C32.5169 25.1023 33.4664 24.1525 33.4664 22.9809ZM31.345 24.1899C30.6786 24.1899 30.1363 23.6476 30.1363 22.9809C30.1363 22.3143 30.6786 21.7721 31.345 21.7721C32.0117 21.7721 32.5541 22.3143 32.5541 22.9809C32.5541 23.6476 32.0118 24.1899 31.345 24.1899Z" fill="#1A1F22"/>
<path d="M31.7827 22.981C31.7827 22.865 31.7366 22.7537 31.6545 22.6716C31.5725 22.5895 31.4612 22.5434 31.3451 22.5434C31.2291 22.5434 31.1178 22.5895 31.0357 22.6716C30.9537 22.7537 30.9076 22.865 30.9076 22.981C30.9076 23.0971 30.9537 23.2083 31.0357 23.2904C31.1178 23.3725 31.2291 23.4186 31.3451 23.4186C31.4612 23.4186 31.5725 23.3725 31.6545 23.2904C31.7366 23.2083 31.7827 23.0971 31.7827 22.981Z" fill="#1A1F22"/>
<path d="M0 18.1775H24.8432V19.0418H0V18.1775Z" fill="#DC6823"/>
</svg>
