<svg width="37" height="36" viewBox="0 0 37 36" fill="none" xmlns="http://www.w3.org/2000/svg">
<path fill-rule="evenodd" clip-rule="evenodd" d="M2.33369 31.5C2.32815 32.0907 2.44273 32.6766 2.67076 33.2237C2.89879 33.7708 3.23574 34.2681 3.66202 34.6868C4.08831 35.1054 4.59543 35.4371 5.15394 35.6626C5.71245 35.888 6.3112 36.0027 6.91543 36H30.0016C30.6058 36.0027 31.2045 35.888 31.7631 35.6626C32.3216 35.4371 32.8287 35.1054 33.255 34.6868C33.6812 34.2681 34.0182 33.7708 34.2462 33.2237C34.4743 32.6766 34.5888 32.0907 34.5833 31.5H2.33369Z" fill="#DC6823"/>
<path fill-rule="evenodd" clip-rule="evenodd" d="M32.5175 12.19C32.371 11.0297 31.8204 9.96405 30.9686 9.19169C30.1167 8.41934 29.0217 7.99302 27.8877 7.99222H22.4844C22.9049 7.26083 23.128 6.42669 23.1307 5.57632C23.1307 4.2963 22.6379 3.06871 21.7607 2.1636C20.8835 1.25849 19.6938 0.75 18.4532 0.75C17.2126 0.75 16.0229 1.25849 15.1457 2.1636C14.2685 3.06871 13.7757 4.2963 13.7757 5.57632C13.7784 6.42669 14.0015 7.26083 14.4219 7.99222H9.02929C7.89346 7.99036 6.79587 8.41549 5.9418 9.18808C5.08772 9.96068 4.53566 11.0278 4.38885 12.19L2.3335 28.5H34.5835L32.5175 12.19ZM16.1277 5.57632C16.1277 5.09804 16.2653 4.63052 16.523 4.233C16.7808 3.83547 17.1471 3.52583 17.5755 3.3433C18.004 3.16077 18.4753 3.11357 18.9298 3.20768C19.3843 3.30179 19.8014 3.53297 20.1285 3.87193C20.4555 4.2109 20.6777 4.64239 20.7668 5.11174C20.8559 5.5811 20.8081 6.0672 20.6292 6.50845C20.4504 6.9497 20.1486 7.32625 19.7622 7.59039C19.3758 7.85454 18.922 7.99438 18.4585 7.99222C17.8394 7.98933 17.2465 7.73352 16.8097 7.28077C16.3729 6.82801 16.1277 6.21517 16.1277 5.57632ZM17.2931 16.4315C17.2958 17.3225 16.9788 18.1831 16.4031 18.8473C16.9788 19.5116 17.2958 20.3722 17.2931 21.2632V23.7119H14.9517V21.2632C14.9517 21.1053 14.9215 20.949 14.863 20.8031C14.8044 20.6572 14.7186 20.5246 14.6103 20.413C14.5021 20.3013 14.3736 20.2127 14.2323 20.1523C14.0909 20.0919 13.9393 20.0608 13.7863 20.0608H12.6209V23.7119H10.2795V14.0265H12.6209V17.6449H13.7863C13.9393 17.6449 14.0909 17.6138 14.2323 17.5533C14.3736 17.4929 14.5021 17.4043 14.6103 17.2927C14.7186 17.181 14.8044 17.0485 14.863 16.9026C14.9215 16.7567 14.9517 16.6003 14.9517 16.4424V14.0265H17.2931V16.4315ZM26.6481 16.4315H21.9653V21.2523H24.3067V18.8473H26.6481V22.4657C26.6481 22.7846 26.5253 23.0905 26.3068 23.316C26.0882 23.5415 25.7918 23.6682 25.4827 23.6682H20.7999C20.4908 23.6682 20.1944 23.5415 19.9758 23.316C19.7573 23.0905 19.6345 22.7846 19.6345 22.4657V15.229C19.6345 14.9101 19.7573 14.6042 19.9758 14.3787C20.1944 14.1532 20.4908 14.0265 20.7999 14.0265H26.6481V16.4315Z" fill="#1A1F22"/>
</svg>
