<svg width="182" height="51" viewBox="0 0 182 51" fill="none" xmlns="http://www.w3.org/2000/svg">
<path fill-rule="evenodd" clip-rule="evenodd" d="M140.78 7.8915L140.752 16.9048L147.443 7.34198H150.876L150.825 23.771H146.933L146.961 14.2309L140.27 23.771H136.837L136.888 7.34198H140.78V7.8915ZM147.811 4.33943C147.796 4.83905 147.692 5.33203 147.505 5.79537C147.328 6.23457 147.062 6.63207 146.723 6.9624C146.376 7.29339 145.96 7.54303 145.505 7.69321C145.01 7.85665 144.491 7.93518 143.97 7.92549C143.471 7.95369 142.971 7.88314 142.5 7.71787C142.028 7.5526 141.594 7.29587 141.222 6.9624C140.892 6.63159 140.633 6.23624 140.463 5.80104C140.286 5.33721 140.188 4.84696 140.174 4.35075V3.78424H143.126V4.35075C143.097 4.63793 143.174 4.92567 143.341 5.16087C143.429 5.24153 143.533 5.30285 143.646 5.3409C143.759 5.37895 143.879 5.3929 143.998 5.38182C144.122 5.39535 144.247 5.38321 144.366 5.34617C144.485 5.30913 144.595 5.24799 144.689 5.16654C144.856 4.93154 144.927 4.64185 144.887 4.35643V3.7899H147.879L147.811 4.33943ZM121.751 20.117C122.255 20.1516 122.753 19.9982 123.15 19.6864C123.298 19.5546 123.413 19.3896 123.484 19.2049C123.57 18.9768 123.612 18.7347 123.609 18.4911C123.63 18.2686 123.604 18.0443 123.533 17.8325C123.461 17.6208 123.347 17.4263 123.195 17.2617C122.794 16.9552 122.293 16.8097 121.791 16.8538H119.371V20.134L121.751 20.117ZM132.186 7.8915L132.135 23.7937H128.249L128.305 7.36464H132.22L132.186 7.8915ZM122.125 13.1601C122.853 13.1527 123.577 13.2598 124.272 13.4774C124.909 13.6749 125.499 14.0007 126.005 14.4348C126.558 14.9109 126.987 15.5134 127.257 16.191C127.533 16.9259 127.668 17.7062 127.654 18.4911C127.663 19.2659 127.522 20.0352 127.24 20.7571C126.965 21.43 126.534 22.028 125.983 22.502C125.471 22.931 124.88 23.2561 124.244 23.4595C123.547 23.6756 122.82 23.7807 122.091 23.771H115.479L115.53 7.34198H119.422V13.1601H122.125ZM105.56 20.1226C105.854 20.129 106.148 20.0927 106.432 20.015C106.641 19.9554 106.834 19.851 106.999 19.7091C107.147 19.5983 107.262 19.4496 107.333 19.2785C107.419 19.0782 107.461 18.862 107.458 18.644C107.48 18.4341 107.452 18.2219 107.376 18.0249C107.3 17.8279 107.179 17.6518 107.021 17.511C106.55 17.2102 105.992 17.0729 105.435 17.1201H102.88V20.1226H105.56ZM102.925 11.0244V13.6303H105.107C105.571 13.6709 106.035 13.5509 106.421 13.2904C106.551 13.1634 106.652 13.0091 106.715 12.8387C106.779 12.6683 106.804 12.486 106.789 12.3047C106.805 12.13 106.784 11.9538 106.725 11.7885C106.666 11.6231 106.572 11.4725 106.449 11.3473C106.092 11.0984 105.659 10.984 105.225 11.0244H102.925ZM109.321 14.9617C109.839 15.1817 110.296 15.5238 110.653 15.9587C111.289 16.8067 111.604 17.8523 111.542 18.9103C111.556 19.6371 111.411 20.3582 111.117 21.0234C110.827 21.6556 110.388 22.2078 109.837 22.6323C109.33 23.0279 108.753 23.3257 108.137 23.5104C107.455 23.7097 106.747 23.807 106.036 23.7994H98.9881L99.0448 7.37029H105.662C106.345 7.36293 107.026 7.45258 107.684 7.63656C108.275 7.80122 108.827 8.08034 109.31 8.45802C109.8 8.83992 110.189 9.33587 110.443 9.90264C110.696 10.4948 110.819 11.1341 110.806 11.7778C110.837 12.6369 110.595 13.4838 110.115 14.1969C109.892 14.4905 109.625 14.7468 109.321 14.956V14.9617ZM89.5272 14.4575C90.8189 14.4575 91.4685 13.8777 91.4761 12.7182C91.4984 12.4895 91.471 12.2587 91.3957 12.0416C91.3204 11.8245 91.199 11.6263 91.0398 11.4606C90.6087 11.1439 90.0771 10.9949 89.5442 11.0413H87.8447V14.4405L89.5272 14.4575ZM89.8558 7.36464C90.6682 7.35264 91.4766 7.47909 92.2465 7.73855C92.945 7.97513 93.5831 8.36188 94.1161 8.87158C94.5986 9.35168 94.9699 9.93185 95.2038 10.5711C95.4504 11.2458 95.5695 11.9604 95.555 12.6786C95.5667 13.4141 95.4439 14.1457 95.1924 14.837C94.9539 15.4753 94.581 16.0549 94.0991 16.5366C93.5706 17.0667 92.9297 17.4714 92.2239 17.7206C91.4514 17.9867 90.6387 18.1171 89.8218 18.1058H87.8163V23.771H83.9244L83.981 7.34198L89.8558 7.36464ZM79.8398 20.6892V23.822H69.5291L69.5858 7.39296H79.7831V11.0697H73.4664V13.1035H79.2166V16.7802H73.4438V20.1793H79.8511L79.8398 20.6892ZM62.5836 23.822H58.0514L58.1081 5.86902H49.0438L48.9871 23.822H43.9395C43.9659 16.2344 43.9923 8.64875 44.0188 1.06494H63.1444C63.1218 8.64875 63.0972 16.2344 63.0708 23.822H62.5836Z" fill="white"/>
<path fill-rule="evenodd" clip-rule="evenodd" d="M182 33.0282L181.955 48.9304H178.063V42.1945H171.877V48.9304H167.962L168.019 32.5014H171.905V38.4498H178.108V32.5014H181.995L182 33.0282ZM158.161 41.8093L156.711 37.8946L155.244 41.8093H158.161ZM159.47 45.4407H153.901L152.598 48.9304H148.304L154.96 32.5014H158.501L165.045 48.9304H160.756L159.47 45.4407ZM141.789 39.5715C143.086 39.5715 143.738 39.005 143.738 37.8323C143.76 37.6041 143.734 37.3736 143.659 37.1566C143.585 36.9395 143.465 36.7411 143.307 36.5746C142.874 36.2581 142.341 36.1092 141.806 36.1554H140.106V39.5545L141.789 39.5715ZM142.123 32.4844C142.935 32.4739 143.743 32.5983 144.514 32.8526C145.212 33.0907 145.849 33.4772 146.383 33.9856C146.862 34.4687 147.233 35.048 147.471 35.6852C147.717 36.36 147.836 37.0745 147.822 37.7927C147.828 38.5278 147.706 39.2583 147.46 39.9511C147.219 40.5896 146.844 41.1692 146.361 41.6506C145.835 42.1815 145.196 42.5863 144.491 42.8347C143.717 43.1008 142.902 43.2311 142.083 43.2199H140.078V48.8851H136.186L136.243 32.456L142.123 32.4844ZM128.209 48.7491L122.544 42.2908V48.9304H118.652L118.709 32.5014H122.601V38.3932L127.62 32.5014H132.974L125.87 40.138L133.931 48.9304H128.368L128.209 48.7491ZM103.022 37.3791C102.61 37.7879 102.288 38.2779 102.076 38.8181C101.858 39.4249 101.749 40.0654 101.753 40.7102C101.742 41.3527 101.848 41.9918 102.065 42.5967C102.267 43.1363 102.582 43.6268 102.988 44.0357C103.377 44.4438 103.848 44.7644 104.37 44.9761C104.936 45.1939 105.538 45.3016 106.143 45.2934C106.734 45.312 107.322 45.2096 107.872 44.9923C108.421 44.7751 108.921 44.4476 109.339 44.03C109.746 43.6175 110.061 43.1231 110.262 42.5797C110.678 41.3564 110.678 40.0301 110.262 38.8067C110.067 38.2692 109.758 37.7803 109.356 37.3734C108.953 36.9647 108.471 36.6428 107.939 36.4273C107.374 36.2079 106.772 36.1001 106.166 36.1101C105.579 36.088 104.994 36.1884 104.448 36.405C103.901 36.6215 103.406 36.9494 102.994 37.3678L103.022 37.3791ZM112.33 34.5465C113.135 35.3262 113.765 36.2687 114.177 37.3111C114.994 39.5034 114.994 41.917 114.177 44.1093C113.757 45.1518 113.124 46.0953 112.319 46.8796C111.525 47.6538 110.582 48.259 109.548 48.6585C108.471 49.0539 107.33 49.2459 106.183 49.225C105.042 49.247 103.906 49.0549 102.835 48.6585C101.806 48.2586 100.869 47.6534 100.082 46.8796C99.2821 46.0921 98.6551 45.1467 98.2406 44.1037C97.4305 41.91 97.4305 39.4991 98.2406 37.3054C98.6602 36.2629 99.2953 35.3208 100.104 34.5408C100.895 33.7682 101.833 33.1631 102.863 32.762C105.033 31.9688 107.413 31.9688 109.582 32.762C110.611 33.1618 111.548 33.7671 112.336 34.5408L112.33 34.5465ZM95.5099 36.1724H91.8785L91.8389 48.9474H87.9129L87.9526 36.1724H83.7773V32.5014H96.0538V36.1724H95.5099ZM75.4495 45.2537C75.7458 45.2599 76.0415 45.2237 76.3276 45.1461C76.5353 45.0809 76.7279 44.975 76.8941 44.8345C77.0417 44.7194 77.1585 44.5695 77.234 44.3983C77.3179 44.1975 77.3584 43.9813 77.353 43.7638C77.376 43.5543 77.349 43.3424 77.2741 43.1454C77.1993 42.9484 77.0788 42.772 76.9224 42.6307C76.4503 42.326 75.8904 42.1865 75.3305 42.2342H72.7755V45.2311L75.4495 45.2537ZM72.8208 36.1554V38.7557H75.0019C75.4652 38.7952 75.9282 38.6775 76.3163 38.4215C76.4464 38.2946 76.5465 38.1403 76.6093 37.9697C76.672 37.7991 76.6958 37.6167 76.6788 37.4357C76.6979 37.2622 76.6777 37.0866 76.6199 36.9219C76.562 36.7572 76.4679 36.6075 76.3446 36.484C75.9884 36.2332 75.5548 36.1167 75.1209 36.1554H72.8208ZM79.2168 40.0927C79.7318 40.3149 80.1877 40.6544 80.5482 41.0841C81.1842 41.93 81.5012 42.9733 81.4433 44.03C81.452 44.757 81.3053 45.4775 81.0127 46.1431C80.7241 46.7778 80.2822 47.3307 79.7267 47.7521C79.2227 48.1526 78.6454 48.4509 78.0271 48.6302C77.3446 48.8294 76.6364 48.9267 75.9254 48.9191H68.8949L68.9458 32.49H75.5628C76.2463 32.4802 76.9276 32.5699 77.5853 32.7563C78.1745 32.9214 78.7266 33.1984 79.2112 33.5721C79.7011 33.954 80.0901 34.45 80.3442 35.0167C80.5951 35.6075 80.7187 36.2445 80.7068 36.8862C80.7351 37.745 80.4934 38.5911 80.0156 39.3053C79.7957 39.609 79.5278 39.8749 79.2225 40.0927H79.2168ZM55.6213 39.3336L53.2646 32.9489L50.8626 39.3336H55.6213ZM57.3209 44.0074H49.1177L47.2765 48.9304H41.6963L50.9079 26.1733H55.6213L64.6856 48.9304H59.1111L57.3209 44.0074Z" fill="#DC6823"/>
<path fill-rule="evenodd" clip-rule="evenodd" d="M21.4596 41.05H21.4539V36.8521L21.4482 36.8465V29.1475L27.9689 32.9148V42.6419L25.7425 43.9279L21.4596 46.4036V41.05Z" fill="#DC6823"/>
<path fill-rule="evenodd" clip-rule="evenodd" d="M1.55273 35.1357V33.4758V35.4586L7.93174 31.8329L7.9714 31.8555L8.4586 31.5723V38.9937L14.9566 42.744L21.4545 38.9937V41.0501H21.4602V46.4037L21.6472 46.2961L14.696 50.3127L7.74479 46.2961L1.55273 42.7214V35.1357Z" fill="white"/>
<path fill-rule="evenodd" clip-rule="evenodd" d="M13.3018 16.3271L14.9674 17.2902L16.633 18.2533V22.1L14.9674 23.0631L13.3018 24.0205L11.6363 23.0631L9.9707 22.1V18.2533L11.6363 17.2902L13.3018 16.3271Z" fill="white"/>
<path fill-rule="evenodd" clip-rule="evenodd" d="M3.13898 26.8362L9.97687 22.7743V22.1001L11.6424 23.0632L13.308 24.0206L14.9736 23.0632L16.6335 22.1001V19.4375V20.6385V26.8079L15.863 27.2498C13.308 28.7114 10.5207 30.3883 7.96574 31.8499H7.93175L1.55273 35.4757V27.7483L3.13898 26.8362Z" fill="#DC6823"/>
<path fill-rule="evenodd" clip-rule="evenodd" d="M9.97625 22.0945L6.63379 20.174L9.97625 18.2591V22.0945ZM26.6206 8.72461V16.248L16.6328 22.0095V18.2535L14.973 17.2904L13.3244 16.3386L26.6206 8.72461Z" fill="#DC6823"/>
<path fill-rule="evenodd" clip-rule="evenodd" d="M12.8254 0L0.0107422 7.35908V0H12.8254Z" fill="#DC6823"/>
<path fill-rule="evenodd" clip-rule="evenodd" d="M26.6151 0V4.18091L2.72496 17.902L0 16.3327L0.0396563 11.9422L20.8026 0H26.6151Z" fill="#DC6823"/>
</svg>
