<svg width="182" height="51" viewBox="0 0 182 51" fill="none" xmlns="http://www.w3.org/2000/svg">
<path fill-rule="evenodd" clip-rule="evenodd" d="M140.78 7.89162L140.752 16.9049L147.443 7.3421H150.876L150.825 23.7712H146.933L146.961 14.231L140.27 23.7712H136.837L136.888 7.3421H140.78V7.89162ZM147.811 4.33955C147.796 4.83917 147.692 5.33215 147.505 5.79549C147.328 6.23469 147.062 6.63219 146.723 6.96252C146.376 7.29351 145.96 7.54316 145.505 7.69334C145.01 7.85677 144.491 7.9353 143.97 7.92561C143.471 7.95382 142.971 7.88326 142.5 7.71799C142.028 7.55272 141.594 7.29599 141.222 6.96252C140.892 6.63171 140.633 6.23636 140.463 5.80116C140.286 5.33734 140.188 4.84708 140.174 4.35088V3.78436H143.126V4.35088C143.097 4.63805 143.174 4.92579 143.341 5.161C143.429 5.24165 143.533 5.30297 143.646 5.34102C143.759 5.37908 143.879 5.39302 143.998 5.38195C144.122 5.39547 144.247 5.38334 144.366 5.3463C144.485 5.30926 144.595 5.24811 144.689 5.16667C144.856 4.93166 144.927 4.64198 144.887 4.35655V3.79002H147.879L147.811 4.33955ZM121.751 20.1171C122.255 20.1517 122.753 19.9983 123.15 19.6866C123.298 19.5548 123.413 19.3897 123.484 19.205C123.57 18.9769 123.612 18.7348 123.609 18.4912C123.63 18.2688 123.604 18.0444 123.533 17.8327C123.461 17.6209 123.347 17.4265 123.195 17.2619C122.794 16.9553 122.293 16.8098 121.791 16.854H119.371V20.1341L121.751 20.1171ZM132.186 7.89162L132.135 23.7938H128.249L128.305 7.36476H132.22L132.186 7.89162ZM122.125 13.1602C122.853 13.1528 123.577 13.2599 124.272 13.4775C124.909 13.675 125.499 14.0009 126.005 14.4349C126.558 14.911 126.987 15.5135 127.257 16.1911C127.533 16.926 127.668 17.7064 127.654 18.4912C127.663 19.2661 127.522 20.0354 127.24 20.7573C126.965 21.4301 126.534 22.0281 125.983 22.5022C125.471 22.9311 124.88 23.2563 124.244 23.4596C123.547 23.6757 122.82 23.7808 122.091 23.7712H115.479L115.53 7.3421H119.422V13.1602H122.125ZM105.56 20.1228C105.854 20.1291 106.148 20.0928 106.432 20.0151C106.641 19.9555 106.834 19.8511 106.999 19.7092C107.147 19.5985 107.262 19.4497 107.333 19.2787C107.419 19.0783 107.461 18.8621 107.458 18.6442C107.48 18.4342 107.452 18.222 107.376 18.025C107.3 17.828 107.179 17.6519 107.021 17.5111C106.55 17.2103 105.992 17.073 105.435 17.1202H102.88V20.1228H105.56ZM102.925 11.0245V13.6305H105.107C105.571 13.671 106.035 13.551 106.421 13.2905C106.551 13.1635 106.652 13.0093 106.715 12.8389C106.779 12.6685 106.804 12.4861 106.789 12.3048C106.805 12.1301 106.784 11.9539 106.725 11.7886C106.666 11.6232 106.572 11.4727 106.449 11.3474C106.092 11.0985 105.659 10.9841 105.225 11.0245H102.925ZM109.321 14.9618C109.839 15.1818 110.296 15.5239 110.653 15.9588C111.289 16.8068 111.604 17.8524 111.542 18.9104C111.556 19.6373 111.411 20.3583 111.117 21.0235C110.827 21.6557 110.388 22.2079 109.837 22.6324C109.33 23.0281 108.753 23.3258 108.137 23.5106C107.455 23.7098 106.747 23.8071 106.036 23.7995H98.9881L99.0448 7.37042H105.662C106.345 7.36305 107.026 7.4527 107.684 7.63668C108.275 7.80135 108.827 8.08046 109.31 8.45814C109.8 8.84004 110.189 9.33599 110.443 9.90276C110.696 10.495 110.819 11.1342 110.806 11.7779C110.837 12.6371 110.595 13.4839 110.115 14.197C109.892 14.4906 109.625 14.7469 109.321 14.9561V14.9618ZM89.5272 14.4576C90.8189 14.4576 91.4685 13.8778 91.4761 12.7184C91.4984 12.4897 91.471 12.2588 91.3957 12.0417C91.3204 11.8246 91.199 11.6264 91.0398 11.4607C90.6087 11.1441 90.0771 10.9951 89.5442 11.0415H87.8447V14.4406L89.5272 14.4576ZM89.8558 7.36476C90.6682 7.35276 91.4766 7.47921 92.2465 7.73867C92.945 7.97525 93.5831 8.362 94.1161 8.87171C94.5986 9.3518 94.9699 9.93197 95.2038 10.5713C95.4504 11.2459 95.5695 11.9605 95.555 12.6787C95.5667 13.4143 95.4439 14.1458 95.1924 14.8372C94.9539 15.4754 94.581 16.055 94.0991 16.5367C93.5706 17.0669 92.9297 17.4715 92.2239 17.7207C91.4514 17.9869 90.6387 18.1172 89.8218 18.106H87.8163V23.7712H83.9244L83.981 7.3421L89.8558 7.36476ZM79.8398 20.6893V23.8221H69.5291L69.5858 7.39308H79.7831V11.0698H73.4664V13.1036H79.2166V16.7803H73.4438V20.1794H79.8511L79.8398 20.6893ZM62.5836 23.8221H58.0514L58.1081 5.86914H49.0438L48.9871 23.8221H43.9395C43.9659 16.2346 43.9923 8.64887 44.0188 1.06506H63.1444C63.1218 8.64887 63.0972 16.2346 63.0708 23.8221H62.5836Z" fill="#1A1F22"/>
<path fill-rule="evenodd" clip-rule="evenodd" d="M182 33.0281L181.955 48.9303H178.063V42.1943H171.877V48.9303H167.962L168.019 32.5012H171.905V38.4497H178.108V32.5012H181.995L182 33.0281ZM158.161 41.8091L156.711 37.8945L155.244 41.8091H158.161ZM159.47 45.4405H153.901L152.598 48.9303H148.304L154.96 32.5012H158.501L165.045 48.9303H160.756L159.47 45.4405ZM141.789 39.5714C143.086 39.5714 143.738 39.0048 143.738 37.8322C143.76 37.6039 143.734 37.3734 143.659 37.1564C143.585 36.9394 143.465 36.7409 143.307 36.5745C142.874 36.2579 142.341 36.109 141.806 36.1552H140.106V39.5544L141.789 39.5714ZM142.123 32.4842C142.935 32.4737 143.743 32.5982 144.514 32.8524C145.212 33.0905 145.849 33.4771 146.383 33.9855C146.862 34.4685 147.233 35.0478 147.471 35.685C147.717 36.3598 147.836 37.0744 147.822 37.7925C147.828 38.5276 147.706 39.2581 147.46 39.9509C147.219 40.5895 146.844 41.169 146.361 41.6505C145.835 42.1813 145.196 42.5861 144.491 42.8345C143.717 43.1006 142.902 43.2309 142.083 43.2197H140.078V48.8849H136.186L136.243 32.4559L142.123 32.4842ZM128.209 48.749L122.544 42.2907V48.9303H118.652L118.709 32.5012H122.601V38.393L127.62 32.5012H132.974L125.87 40.1379L133.931 48.9303H128.368L128.209 48.749ZM103.022 37.3789C102.61 37.7877 102.288 38.2778 102.076 38.8179C101.858 39.4248 101.749 40.0653 101.753 40.7101C101.742 41.3525 101.848 41.9916 102.065 42.5966C102.267 43.1362 102.582 43.6266 102.988 44.0355C103.377 44.4437 103.848 44.7643 104.37 44.976C104.936 45.1938 105.538 45.3014 106.143 45.2932C106.734 45.3119 107.322 45.2094 107.872 44.9922C108.421 44.7749 108.921 44.4474 109.339 44.0299C109.746 43.6173 110.061 43.123 110.262 42.5796C110.678 41.3563 110.678 40.0299 110.262 38.8066C110.067 38.269 109.758 37.7801 109.356 37.3733C108.953 36.9646 108.471 36.6426 107.939 36.4272C107.374 36.2077 106.772 36.1 106.166 36.1099C105.579 36.0878 104.994 36.1883 104.448 36.4048C103.901 36.6213 103.406 36.9492 102.994 37.3676L103.022 37.3789ZM112.33 34.5463C113.135 35.326 113.765 36.2686 114.177 37.3109C114.994 39.5033 114.994 41.9169 114.177 44.1092C113.757 45.1517 113.124 46.0952 112.319 46.8795C111.525 47.6537 110.582 48.2588 109.548 48.6583C108.471 49.0537 107.33 49.2458 106.183 49.2248C105.042 49.2469 103.906 49.0547 102.835 48.6583C101.806 48.2585 100.869 47.6532 100.082 46.8795C99.2821 46.0919 98.6551 45.1465 98.2406 44.1035C97.4305 41.9098 97.4305 39.499 98.2406 37.3053C98.6602 36.2627 99.2953 35.3206 100.104 34.5407C100.895 33.768 101.833 33.163 102.863 32.7618C105.033 31.9687 107.413 31.9687 109.582 32.7618C110.611 33.1617 111.548 33.7669 112.336 34.5407L112.33 34.5463ZM95.5099 36.1722H91.8785L91.8389 48.9473H87.9129L87.9526 36.1722H83.7773V32.5012H96.0538V36.1722H95.5099ZM75.4495 45.2535C75.7458 45.2598 76.0415 45.2235 76.3276 45.1459C76.5353 45.0807 76.7279 44.9748 76.8941 44.8343C77.0417 44.7192 77.1585 44.5694 77.234 44.3981C77.3179 44.1973 77.3584 43.9811 77.353 43.7636C77.376 43.5542 77.349 43.3422 77.2741 43.1452C77.1993 42.9483 77.0788 42.7719 76.9224 42.6306C76.4503 42.3258 75.8904 42.1863 75.3305 42.234H72.7755V45.2309L75.4495 45.2535ZM72.8208 36.1552V38.7556H75.0019C75.4652 38.7951 75.9282 38.6773 76.3163 38.4213C76.4464 38.2945 76.5465 38.1401 76.6093 37.9695C76.672 37.799 76.6958 37.6165 76.6788 37.4356C76.6979 37.262 76.6777 37.0864 76.6199 36.9217C76.562 36.757 76.4679 36.6074 76.3446 36.4838C75.9884 36.233 75.5548 36.1166 75.1209 36.1552H72.8208ZM79.2168 40.0926C79.7318 40.3147 80.1877 40.6542 80.5482 41.084C81.1842 41.9298 81.5012 42.9731 81.4433 44.0299C81.452 44.7569 81.3053 45.4774 81.0127 46.143C80.7241 46.7776 80.2822 47.3305 79.7267 47.7519C79.2227 48.1524 78.6454 48.4507 78.0271 48.63C77.3446 48.8292 76.6364 48.9266 75.9254 48.9189H68.8949L68.9458 32.4899H75.5628C76.2463 32.4801 76.9276 32.5698 77.5853 32.7561C78.1745 32.9212 78.7266 33.1982 79.2112 33.5719C79.7011 33.9538 80.0901 34.4498 80.3442 35.0166C80.5951 35.6073 80.7187 36.2443 80.7068 36.8861C80.7351 37.7449 80.4934 38.5909 80.0156 39.3051C79.7957 39.6088 79.5278 39.8748 79.2225 40.0926H79.2168ZM55.6213 39.3334L53.2646 32.9488L50.8626 39.3334H55.6213ZM57.3209 44.0072H49.1177L47.2765 48.9303H41.6963L50.9079 26.1732H55.6213L64.6856 48.9303H59.1111L57.3209 44.0072Z" fill="#DC6823"/>
<path fill-rule="evenodd" clip-rule="evenodd" d="M21.4596 41.05H21.4539V36.8521L21.4482 36.8464V29.1474L27.9689 32.9148V42.6419L25.7425 43.9279L21.4596 46.4036V41.05Z" fill="#DC6823"/>
<path fill-rule="evenodd" clip-rule="evenodd" d="M1.55273 35.1355V33.4756V35.4584L7.93174 31.8327L7.9714 31.8554L8.4586 31.5721V38.9935L14.9566 42.7439L21.4545 38.9935V41.05H21.4602V46.4036L21.6472 46.2959L14.696 50.3126L7.74479 46.2959L1.55273 42.7212V35.1355Z" fill="#1A1F22"/>
<path fill-rule="evenodd" clip-rule="evenodd" d="M13.3018 16.3271L14.9674 17.2902L16.633 18.2533V22.0999L14.9674 23.063L13.3018 24.0204L11.6363 23.063L9.9707 22.0999V18.2533L11.6363 17.2902L13.3018 16.3271Z" fill="#1A1F22"/>
<path fill-rule="evenodd" clip-rule="evenodd" d="M3.13898 26.836L9.97687 22.7741V22.0999L11.6424 23.063L13.308 24.0204L14.9736 23.063L16.6335 22.0999V19.4373V20.6383V26.8077L15.863 27.2496C13.308 28.7112 10.5207 30.3881 7.96574 31.8497H7.93175L1.55273 35.4754V27.7481L3.13898 26.836Z" fill="#DC6823"/>
<path fill-rule="evenodd" clip-rule="evenodd" d="M9.97625 22.0943L6.63379 20.1737L9.97625 18.2589V22.0943ZM26.6206 8.7244V16.2478L16.6328 22.0093V18.2533L14.973 17.2902L13.3244 16.3384L26.6206 8.7244Z" fill="#DC6823"/>
<path fill-rule="evenodd" clip-rule="evenodd" d="M12.8254 0L0.0107422 7.35908V0H12.8254Z" fill="#DC6823"/>
<path fill-rule="evenodd" clip-rule="evenodd" d="M26.6151 0V4.18091L2.72496 17.902L0 16.3327L0.0396563 11.9422L20.8026 0H26.6151Z" fill="#DC6823"/>
</svg>
