<svg width="24" height="24" viewBox="0 0 24 24" fill="none" xmlns="http://www.w3.org/2000/svg">
<path d="M21 13V8H5C4.46957 8 3.96086 7.78929 3.58579 7.41421C3.21071 7.03914 3 6.53043 3 6C3 5.46957 3.21071 4.96086 3.58579 4.58579C3.96086 4.21071 4.46957 4 5 4H19V8" stroke="#7C8183" stroke-width="2" stroke-linecap="round" stroke-linejoin="round"/>
<path d="M3 6V20C3 20.5304 3.21071 21.0391 3.58579 21.4142C3.96086 21.7893 4.46957 22 5 22H21V17" stroke="#7C8183" stroke-width="2" stroke-linecap="round" stroke-linejoin="round"/>
<path d="M18 13C17.4696 13 16.9609 13.2107 16.5858 13.5858C16.2107 13.9609 16 14.4696 16 15C16 15.5304 16.2107 16.0391 16.5858 16.4142C16.9609 16.7893 17.4696 17 18 17H22V13H18Z" stroke="#7C8183" stroke-width="2" stroke-linecap="round" stroke-linejoin="round"/>
</svg>
