<svg width="36" height="36" viewBox="0 0 36 36" fill="none" xmlns="http://www.w3.org/2000/svg">
<path d="M4.05035 15.45C3.71428 15.7857 3.44767 16.1844 3.26576 16.6232C3.08386 17.0621 2.99023 17.5325 2.99023 18.0075C2.99023 18.4825 3.08386 18.9529 3.26576 19.3918C3.44767 19.8306 3.71428 20.2293 4.05035 20.565L15.4354 31.95C15.7711 32.2861 16.1698 32.5527 16.6086 32.7346C17.0474 32.9165 17.5178 33.0101 17.9929 33.0101C18.4679 33.0101 18.9383 32.9165 19.3771 32.7346C19.8159 32.5527 20.2146 32.2861 20.5504 31.95L31.9354 20.565C32.2714 20.2293 32.538 19.8306 32.7199 19.3918C32.9018 18.9529 32.9955 18.4825 32.9955 18.0075C32.9955 17.5325 32.9018 17.0621 32.7199 16.6232C32.538 16.1844 32.2714 15.7857 31.9354 15.45L20.5504 4.065C20.2146 3.72893 19.8159 3.46232 19.3771 3.28041C18.9383 3.09851 18.4679 3.00488 17.9929 3.00488C17.5178 3.00488 17.0474 3.09851 16.6086 3.28041C16.1698 3.46232 15.7711 3.72893 15.4354 4.065L4.05035 15.45Z" fill="#DC6823"/>
<path d="M13.7998 13.8H13.8148" stroke="white" stroke-width="3" stroke-linecap="round" stroke-linejoin="round"/>
<path d="M21.75 14.25L14.25 21.75" stroke="white" stroke-width="3" stroke-linecap="round" stroke-linejoin="round"/>
<path d="M22.0498 22.2H22.0648" stroke="white" stroke-width="3" stroke-linecap="round" stroke-linejoin="round"/>
</svg>
