<svg width="71" height="70" viewBox="0 0 71 70" fill="none" xmlns="http://www.w3.org/2000/svg">
<path d="M0.625 0H59.5724L70.625 11.0526V70H11.6776L0.625 58.9474V0Z" fill="#F4F6F8"/>
<g clip-path="url(#clip0_49_3288)">
<path fill-rule="evenodd" clip-rule="evenodd" d="M35.6259 21.3506C32.9263 21.3506 30.2874 22.1511 28.0427 23.6509C25.7981 25.1507 24.0486 27.2825 23.0156 29.7765C21.9825 32.2706 21.7122 35.0151 22.2388 37.6628C22.7655 40.3105 24.0655 42.7426 25.9744 44.6515C27.8833 46.5604 30.3153 47.8603 32.9631 48.387C35.6108 48.9137 38.3552 48.6434 40.8493 47.6103C43.3434 46.5772 45.4751 44.8277 46.9749 42.5831C48.4747 40.3385 49.2753 37.6995 49.2753 34.9999C49.2713 31.3811 47.832 27.9117 45.2731 25.3528C42.7142 22.7939 39.2447 21.3546 35.6259 21.3506ZM35.6259 39.1951C35.2978 39.5049 34.8636 39.6774 34.4123 39.6774C33.961 39.6774 33.5268 39.5049 33.1987 39.1951L28.4192 34.4156L30.8614 32.0034L34.4273 35.5693L40.4204 29.5761L42.8027 32.0034L35.6259 39.1951Z" fill="#1A1F22"/>
<path fill-rule="evenodd" clip-rule="evenodd" d="M58.4748 31.2393C56.9765 29.0518 55.4782 26.7445 55.4782 26.7445C55.4782 26.7445 54.9538 24.0625 54.4294 21.5155C54.166 20.2032 53.5206 18.9982 52.5742 18.0518C51.6278 17.1054 50.4227 16.4599 49.1105 16.1966L43.8665 15.1178L39.3717 12.1212C38.2594 11.3898 36.9572 11 35.626 11C34.2947 11 32.9926 11.3898 31.8803 12.1212L27.3854 15.1178L22.1414 16.1966C20.8292 16.4599 19.6242 17.1054 18.6778 18.0518C17.7314 18.9982 17.0859 20.2032 16.8225 21.5155L15.7438 26.7744C15.7438 26.7744 14.2455 29.0818 12.7472 31.2693C12.0158 32.3816 11.626 33.6837 11.626 35.015C11.626 36.3462 12.0158 37.6484 12.7472 38.7607C14.2455 40.9482 15.7438 43.2555 15.7438 43.2555C15.7438 43.2555 16.2832 45.9524 16.8225 48.5145C17.0912 49.8212 17.739 51.0198 18.685 51.9605C19.631 52.9011 20.8332 53.5422 22.1414 53.8034L27.4004 54.8822L31.8953 57.8788C33.0076 58.6102 34.3097 59 35.641 59C36.9722 59 38.2744 58.6102 39.3867 57.8788L43.8815 54.8822L49.1105 53.8034C50.4227 53.5401 51.6278 52.8946 52.5742 51.9482C53.5206 51.0018 54.166 49.7968 54.4294 48.4845L55.5082 43.2256C55.5082 43.2256 57.0065 40.9182 58.5047 38.7307C59.2318 37.6155 59.6163 36.3118 59.611 34.9805C59.6057 33.6493 59.2107 32.3487 58.4748 31.2393ZM35.626 52.0654C32.2508 52.0654 28.9513 51.0646 26.1449 49.1894C23.3385 47.3142 21.1512 44.649 19.8596 41.5307C18.5679 38.4124 18.23 34.9811 18.8885 31.6707C19.5469 28.3603 21.1723 25.3196 23.5589 22.9329C25.9455 20.5463 28.9863 18.921 32.2967 18.2625C35.607 17.604 39.0383 17.942 42.1566 19.2336C45.2749 20.5252 47.9402 22.7126 49.8154 25.519C51.6905 28.3254 52.6914 31.6248 52.6914 35C52.6835 39.5236 50.883 43.8597 47.6843 47.0583C44.4856 50.257 40.1496 52.0575 35.626 52.0654Z" fill="#DC6823"/>
</g>
<defs>
<clipPath id="clip0_49_3288">
<rect width="48" height="48" fill="white" transform="translate(11.625 11)"/>
</clipPath>
</defs>
</svg>
