<svg width="42" height="42" viewBox="0 0 42 42" fill="none" xmlns="http://www.w3.org/2000/svg">
<path d="M0 0H35.3684L42 6.63158V42H6.63158L0 35.3684V0Z" fill="#1A1F22"/>
<path d="M7.05035 18.45C6.71428 18.7857 6.44767 19.1844 6.26576 19.6232C6.08386 20.0621 5.99023 20.5325 5.99023 21.0075C5.99023 21.4825 6.08386 21.9529 6.26576 22.3918C6.44767 22.8306 6.71428 23.2293 7.05035 23.565L18.4354 34.95C18.7711 35.2861 19.1698 35.5527 19.6086 35.7346C20.0474 35.9165 20.5178 36.0101 20.9929 36.0101C21.4679 36.0101 21.9383 35.9165 22.3771 35.7346C22.8159 35.5527 23.2146 35.2861 23.5504 34.95L34.9354 23.565C35.2714 23.2293 35.538 22.8306 35.7199 22.3918C35.9018 21.9529 35.9955 21.4825 35.9955 21.0075C35.9955 20.5325 35.9018 20.0621 35.7199 19.6232C35.538 19.1844 35.2714 18.7857 34.9354 18.45L23.5504 7.065C23.2146 6.72893 22.8159 6.46232 22.3771 6.28041C21.9383 6.09851 21.4679 6.00488 20.9929 6.00488C20.5178 6.00488 20.0474 6.09851 19.6086 6.28041C19.1698 6.46232 18.7711 6.72893 18.4354 7.065L7.05035 18.45Z" fill="#DC6823"/>
<path d="M16.7998 16.8H16.8148" stroke="white" stroke-width="3" stroke-linecap="round" stroke-linejoin="round"/>
<path d="M24.75 17.25L17.25 24.75" stroke="white" stroke-width="3" stroke-linecap="round" stroke-linejoin="round"/>
<path d="M25.0498 25.2H25.0648" stroke="white" stroke-width="3" stroke-linecap="round" stroke-linejoin="round"/>
</svg>
