<svg width="71" height="70" viewBox="0 0 71 70" fill="none" xmlns="http://www.w3.org/2000/svg">
<path d="M0.875 0H59.8224L70.875 11.0526V70H11.9276L0.875 58.9474V0Z" fill="#F4F6F8"/>
<g clip-path="url(#clip0_49_3281)">
<path d="M46.6545 49.4151C44.4122 51.0944 41.7651 52.2629 38.8858 52.7479L40.585 44.3637C41.3359 40.6615 44.59 38 48.3681 38H53.6248C53.0063 41.6856 51.2687 44.9913 48.7718 47.555L53.0145 51.7976C57.2569 47.4685 59.875 41.5403 59.875 35C59.875 28.4597 57.2569 22.5315 53.0145 18.2023L48.7706 22.4462C50.916 24.6491 52.5029 27.3983 53.2989 30.4671C47.7491 28.0812 41.8102 26.8925 35.875 26.8944C29.9333 26.8962 23.9943 28.0896 18.451 30.467C19.2471 27.3982 20.8339 24.649 22.9793 22.4461L18.7355 18.2023C14.4931 22.5315 11.875 28.4597 11.875 35C11.875 41.5403 14.4931 47.4685 18.7355 51.7976L22.9782 47.555C20.4814 44.9913 18.7437 41.6856 18.1253 38H23.3819C27.16 38 30.4141 40.6615 31.165 44.3637L32.8642 52.7479C29.9849 52.2629 27.3379 51.0944 25.0955 49.4151L20.8206 53.69C24.9381 57.0102 30.174 59 35.875 59C41.5761 59 46.8119 57.0102 50.9294 53.69L46.6545 49.4151ZM31.4688 35C31.4688 32.5704 33.4454 30.5937 35.875 30.5937C38.3046 30.5937 40.2812 32.5704 40.2812 35C40.2812 37.4296 38.3046 39.4062 35.875 39.4062C33.4454 39.4062 31.4688 37.4296 31.4688 35Z" fill="#1A1F22"/>
<path d="M25.0947 20.5843C28.0993 18.3333 31.8313 17 35.8747 17C39.9181 17 43.65 18.3333 46.6547 20.5843L50.9291 16.31C46.8116 12.9897 41.5758 11 35.8747 11C30.1736 11 24.9378 12.9897 20.8203 16.31L25.0947 20.5843Z" fill="#DC6823"/>
<path d="M35.875 36.5938C36.7552 36.5938 37.4688 35.8802 37.4688 35C37.4688 34.1198 36.7552 33.4062 35.875 33.4062C34.9948 33.4062 34.2812 34.1198 34.2812 35C34.2812 35.8802 34.9948 36.5938 35.875 36.5938Z" fill="#1A1F22"/>
</g>
<defs>
<clipPath id="clip0_49_3281">
<rect width="48" height="48" fill="white" transform="translate(11.875 11)"/>
</clipPath>
</defs>
</svg>
