<svg width="71" height="70" viewBox="0 0 71 70" fill="none" xmlns="http://www.w3.org/2000/svg">
<path d="M0.625 0H59.5724L70.625 11.0526V70H11.6776L0.625 58.9474V0Z" fill="#F4F6F8"/>
<g clip-path="url(#clip0_49_3273)">
<path d="M57.3755 26.8787V21.4086L57.5166 21.3647C59.096 20.8728 59.9809 19.1879 59.4893 17.6085C58.9976 16.029 57.3123 15.1444 55.7332 15.6357L47.8561 18.0881C47.8269 17.994 47.7794 17.9067 47.7164 17.831C47.6533 17.7554 47.5759 17.6931 47.4886 17.6475C47.4014 17.6016 47.306 17.5733 47.2078 17.5643C47.1097 17.5553 47.0108 17.5658 46.9167 17.595L18.2731 26.5126C17.7921 26.6617 17.3543 26.9017 16.9793 27.2148C16.5602 27.5654 16.8115 28.2498 17.3581 28.2498H20.6253C20.8756 28.2498 21.11 28.3754 21.2496 28.5835L23.6881 32.2417C23.7584 32.3469 23.8609 32.4265 23.9801 32.4687C24.0994 32.511 24.2291 32.5135 24.35 32.4761L26.9637 31.6623C27.083 31.625 27.1873 31.5506 27.2613 31.4499C27.3353 31.3493 27.3753 31.2276 27.3753 31.1026V27.9189C27.3753 26.0305 28.9061 24.4998 30.7944 24.4998H38.6254C38.7549 24.4997 38.8821 24.5332 38.9948 24.597C39.1075 24.6607 39.2018 24.7525 39.2685 24.8635L40.4775 26.8787C40.5605 27.017 40.6875 27.1235 40.8383 27.181C40.989 27.2384 41.1547 27.2436 41.3087 27.1957L49.1461 24.7557C49.5417 24.6329 49.7629 24.2129 49.6392 23.8173L55.8755 21.8757V27.4998C55.8755 27.6987 55.9545 27.8895 56.0951 28.0301C56.2358 28.1708 56.4266 28.2498 56.6255 28.2498C57.039 28.2498 57.3755 28.5863 57.3755 28.9998C57.3755 29.4133 57.039 29.7498 56.6255 29.7498C56.2119 29.7498 55.8755 29.4133 55.8755 28.9998C55.8755 28.8009 55.7965 28.6101 55.6558 28.4695C55.5151 28.3288 55.3244 28.2498 55.1255 28.2498C54.9266 28.2498 54.7358 28.3288 54.5951 28.4695C54.4545 28.6101 54.3755 28.8009 54.3755 28.9998C54.3755 30.2404 55.3848 31.2498 56.6255 31.2498C57.8662 31.2498 58.8755 30.2404 58.8755 28.9998C58.8755 28.0221 58.2484 27.1883 57.3755 26.8787ZM49.1934 22.3849L48.3018 19.5203L56.179 17.0681C56.9687 16.8223 57.8113 17.2648 58.0571 18.0544C58.303 18.8441 57.8605 19.6866 57.0708 19.9324L56.4079 20.1388L56.3972 20.1422L49.1934 22.3849Z" fill="#DC6823"/>
<path fill-rule="evenodd" clip-rule="evenodd" d="M46.6558 38.9692C46.5154 38.8288 46.3249 38.7498 46.1262 38.7498H14.625C14.4261 38.7498 14.2353 38.8289 14.0947 38.9695C13.954 39.1102 13.875 39.3009 13.875 39.4998V48.4999C13.875 48.6988 13.954 48.8896 14.0947 49.0302C14.2353 49.1709 14.4261 49.2499 14.625 49.2499H14.6429C15.0513 49.2499 15.3755 48.9159 15.375 48.5075V48.4999C15.375 44.7724 18.3975 41.7499 22.1251 41.7499C25.8526 41.7499 28.8751 44.7724 28.8751 48.4999V48.5075C28.8746 48.9159 29.1988 49.2499 29.6072 49.2499H34.893C35.3014 49.2499 35.6256 48.9159 35.6251 48.5075V48.4999C35.6251 44.7724 38.6477 41.7499 42.3752 41.7499C46.1027 41.7499 49.1252 44.7724 49.1252 48.4999V48.5075C49.1248 48.9159 49.4489 49.2499 49.8573 49.2499H50.6252C50.8241 49.2499 51.0149 49.1709 51.1556 49.0302C51.2962 48.8896 51.3752 48.6988 51.3752 48.4999V43.9988C51.3752 43.8002 51.2963 43.6097 51.1559 43.4692L46.6558 38.9692ZM42.3752 37.9998C42.5741 37.9998 42.7649 37.9208 42.9055 37.7802C43.0462 37.6395 43.1252 37.4487 43.1252 37.2498V33.4998C43.1252 33.3639 43.0882 33.2305 43.0183 33.1139L38.5183 25.6139C38.4516 25.5028 38.3574 25.4109 38.2447 25.3471C38.132 25.2833 38.0047 25.2498 37.8752 25.2498H31.5444C29.659 25.2498 28.1251 26.7836 28.1251 28.669V33.4998H23.2764L20.4991 29.3337C20.4306 29.231 20.3378 29.1467 20.2289 29.0884C20.1201 29.0302 19.9985 28.9997 19.875 28.9997H14.8709C13.0811 28.9998 11.625 30.456 11.625 32.2457V37.2498C11.625 37.4487 11.704 37.6395 11.8447 37.7802C11.9853 37.9208 12.1761 37.9998 12.375 37.9998H42.3752ZM22.125 54.4998C25.4387 54.4998 28.125 51.8135 28.125 48.4998C28.125 45.1861 25.4387 42.4998 22.125 42.4998C18.8113 42.4998 16.125 45.1861 16.125 48.4998C16.125 51.8135 18.8113 54.4998 22.125 54.4998ZM48.3751 48.4998C48.3751 51.8135 45.6888 54.4998 42.3751 54.4998C39.0614 54.4998 36.3751 51.8135 36.3751 48.4998C36.3751 45.1861 39.0614 42.4998 42.3751 42.4998C45.6888 42.4998 48.3751 45.1861 48.3751 48.4998ZM30.3751 43.2498H34.1251C34.324 43.2498 34.5148 43.1708 34.6554 43.0302C34.7961 42.8895 34.8751 42.6988 34.8751 42.4998C34.8751 42.3009 34.7961 42.1102 34.6554 41.9695C34.5148 41.8289 34.324 41.7498 34.1251 41.7498H30.3751C30.1762 41.7498 29.9854 41.8289 29.8447 41.9695C29.7041 42.1102 29.6251 42.3009 29.6251 42.4998C29.6251 42.6988 29.7041 42.8895 29.8447 43.0302C29.9854 43.1708 30.1762 43.2498 30.3751 43.2498ZM34.1251 44.7499H30.3751C30.1762 44.7499 29.9854 44.8289 29.8447 44.9695C29.7041 45.1102 29.6251 45.3009 29.6251 45.4999C29.6251 45.6988 29.7041 45.8895 29.8447 46.0302C29.9854 46.1708 30.1762 46.2499 30.3751 46.2499H34.1251C34.324 46.2499 34.5148 46.1708 34.6554 46.0302C34.7961 45.8895 34.8751 45.6988 34.8751 45.4999C34.8751 45.3009 34.7961 45.1102 34.6554 44.9695C34.5148 44.8289 34.324 44.7499 34.1251 44.7499ZM40.996 32.5009L38.7156 28.7958C38.6129 28.6289 38.4691 28.4911 38.2981 28.3955C38.127 28.3 37.9344 28.2498 37.7384 28.2498H35.6251C33.9874 28.2498 32.6526 29.5685 32.6255 31.1991C32.5976 32.8767 34.0071 34.2498 35.6849 34.2498H40.0188C40.9165 34.2498 41.4665 33.2654 40.996 32.5009ZM22.125 51.4999C23.7819 51.4999 25.125 50.1567 25.125 48.4999C25.125 46.843 23.7819 45.4999 22.125 45.4999C20.4681 45.4999 19.125 46.843 19.125 48.4999C19.125 50.1567 20.4681 51.4999 22.125 51.4999ZM45.3751 48.4999C45.3751 50.1567 44.032 51.4999 42.3751 51.4999C40.7183 51.4999 39.3751 50.1567 39.3751 48.4999C39.3751 46.843 40.7183 45.4999 42.3751 45.4999C44.032 45.4999 45.3751 46.843 45.3751 48.4999Z" fill="black"/>
</g>
<defs>
<clipPath id="clip0_49_3273">
<rect width="48" height="48" fill="white" transform="translate(11.625 11)"/>
</clipPath>
</defs>
</svg>
