<svg width="71" height="70" viewBox="0 0 71 70" fill="none" xmlns="http://www.w3.org/2000/svg">
<path d="M0.375 0H59.3224L70.375 11.0526V70H11.4276L0.375 58.9474V0Z" fill="#F4F6F8"/>
<g clip-path="url(#clip0_49_3265)">
<path d="M52.3456 18.0295C47.8126 13.4965 41.7856 11 35.375 11C28.9644 11 22.9374 13.4965 18.4044 18.0295C13.8714 22.5625 11.375 28.5894 11.375 35C11.375 41.4106 13.8714 47.4376 18.4044 51.9705C22.9374 56.5034 28.9644 59 35.375 59C41.7856 59 47.8126 56.5035 52.3456 51.9705C56.8786 47.4375 59.375 41.4106 59.375 35C59.375 28.5894 56.8786 22.5624 52.3456 18.0295ZM35.375 54.2893C24.7388 54.2893 16.0858 45.6361 16.0858 35C16.0858 34.9826 16.0863 34.9653 16.0864 34.9481C16.0864 34.9437 16.0858 34.9394 16.0858 34.935C16.0858 34.9276 16.0867 34.9205 16.0869 34.9132C16.1337 24.4045 24.6262 15.8548 35.1129 15.7141C35.1348 15.7131 35.1566 15.7108 35.1788 15.7108C35.1921 15.7108 35.205 15.7124 35.2183 15.7128C35.2706 15.7124 35.3227 15.7108 35.3751 15.7108C46.0113 15.7108 54.6643 24.364 54.6643 35.0001C54.6643 45.6362 46.0112 54.2893 35.375 54.2893Z" fill="#DC6823"/>
<path d="M50.1086 36.1745C49.3195 36.1745 48.6798 35.5346 48.6798 34.7453C48.6798 33.9559 49.3195 33.3161 50.1086 33.3161H51.8308C51.0219 25.3836 44.5906 19.0908 36.5988 18.5V19.9997C36.5988 20.789 35.9592 21.4289 35.1701 21.4289C34.381 21.4289 33.7413 20.789 33.7413 19.9997V18.5342C25.8679 19.3059 19.5963 25.6199 18.8867 33.5135H20.429C21.2181 33.5135 21.8578 34.1534 21.8578 34.9427C21.8578 35.7321 21.2181 36.3719 20.429 36.3719H18.875C19.5319 44.3926 25.9293 50.8115 33.9388 51.5V49.6882C33.9388 48.8989 34.5785 48.259 35.3676 48.259C36.1567 48.259 36.7964 48.8989 36.7964 49.6882V51.5C44.8715 50.8059 51.3078 44.2869 51.875 36.1745H50.1086ZM41.1513 31.244L36.378 36.0189C36.2453 36.1516 36.0878 36.2569 35.9145 36.3287C35.7411 36.4006 35.5553 36.4375 35.3677 36.4375C35.1801 36.4375 34.9943 36.4006 34.8209 36.3287C34.6476 36.2569 34.4901 36.1516 34.3574 36.0189L26.0485 27.7074C25.4905 27.1493 25.4905 26.2444 26.0485 25.6863C26.6064 25.1281 27.511 25.1281 28.069 25.6863L35.3678 32.9872L39.131 29.2228C39.6889 28.6647 40.5935 28.6647 41.1515 29.2228C41.7093 29.7809 41.7093 30.6859 41.1513 31.244Z" fill="#1A1F22"/>
</g>
<defs>
<clipPath id="clip0_49_3265">
<rect width="48" height="48" fill="white" transform="translate(11.375 11)"/>
</clipPath>
</defs>
</svg>
